<svg width="52" height="88" viewBox="0 0 52 88" fill="none" xmlns="http://www.w3.org/2000/svg">
<path d="M27.9237 14.8136C27.835 14.7615 27.7447 14.7134 27.6532 14.6691V24.3055C27.7187 24.339 27.7835 24.3743 27.8475 24.4119L41.7513 32.5666C42.9417 33.2648 43.675 34.5549 43.675 35.9512V24.0517L27.9237 14.8136Z" fill="white"/>
<path d="M24.0001 24.4119C24.0154 24.4029 24.0308 24.394 24.0462 24.3853V14.8311L8.17255 24.141V35.9512C8.17257 34.5549 8.90589 33.2648 10.0963 32.5666L24.0001 24.4119Z" fill="white"/>
<path d="M10.0963 55.6451C8.90587 54.947 8.17255 53.6567 8.17255 52.2604V64.2253L24.0462 73.5352V63.8262C24.0308 63.8175 24.0154 63.8087 24.0001 63.7997L10.0963 55.6451Z" fill="white"/>
<path d="M27.9237 73.5529L43.675 64.3146V52.2604C43.675 53.6567 42.9417 54.947 41.7513 55.6451L27.8475 63.7997C27.7835 63.8372 27.7187 63.8725 27.6532 63.906V73.6971C27.7447 73.6528 27.835 73.6049 27.9237 73.5529Z" fill="white"/>
<path fill-rule="evenodd" clip-rule="evenodd" d="M52 71.099C52 72.4954 51.2667 73.7856 50.0763 74.4838L27.9237 87.4764C26.7333 88.1745 25.2667 88.1745 24.0763 87.4764L1.9237 74.4838C0.733319 73.7856 0 72.4954 0 71.099V57.1756C0 58.572 0.733316 59.8622 1.9237 60.5604L8.17255 64.2253V66.1838C8.17255 67.5801 8.90587 68.8704 10.0963 69.5685L24.0001 77.7232C24.0154 77.7321 24.0308 77.741 24.0462 77.7497V80.2435C24.0462 81.2553 24.8537 82.0756 25.8497 82.0756C26.8457 82.0756 27.6532 81.2553 27.6532 80.2435V77.8295C27.7187 77.7961 27.7835 77.7607 27.8475 77.7232L41.7513 69.5685C42.9417 68.8704 43.675 67.5801 43.675 66.1838V64.3146L50.0763 60.5604C51.2667 59.8622 52 58.572 52 57.1756V71.099ZM27.6532 59.4071C27.7447 59.3629 27.835 59.3149 27.9237 59.2629L50.0763 46.2704C50.9404 45.7636 51.5635 44.9448 51.8402 43.9999C51.9447 44.3568 52 44.7316 52 45.1143V42.8857C52 43.2684 51.9447 43.6432 51.8402 43.9999C51.5634 43.0551 50.9404 42.2364 50.0763 41.7296L43.675 37.9752L43.675 37.9728C43.675 37.9735 43.6749 37.9743 43.6749 37.9751L27.9237 28.7371C27.835 28.6851 27.7447 28.6369 27.6532 28.5926V38.2289C26.5159 37.6473 25.1639 37.6738 24.0462 38.3087V28.7546L8.17373 38.0637C8.173 38.0327 8.17255 38.0016 8.17255 37.9704V38.0645L1.9237 41.7296C1.05962 42.2364 0.436436 43.0551 0.159682 43.9999C0.0551874 43.6432 0 43.2684 0 42.8857V45.1143C0 44.7316 0.0551706 44.3568 0.159682 43.9999C0.436425 44.9448 1.05959 45.7636 1.9237 46.2704L24.0462 59.2453V49.5363C25.1639 50.1712 26.5159 50.1977 27.6532 49.6161V59.4071ZM14.4737 43.9225L10.0963 41.3552C8.93241 40.6726 8.20557 39.424 8.17373 38.0637L8.17255 38.0645V49.8747C8.17257 48.4784 8.90589 47.1882 10.0963 46.49L14.4737 43.9225ZM14.4737 43.9225L24.0001 49.5098C24.0144 49.5182 24.0288 49.5264 24.0432 49.5346L24.0462 49.5363V38.3087C24.0373 38.3138 24.0283 38.3189 24.0193 38.3241C24.0129 38.3278 24.0065 38.3315 24.0001 38.3353L14.4737 43.9225ZM27.6532 49.6161V38.2289C27.7187 38.2624 27.7835 38.2978 27.8475 38.3353L37.3738 43.9225L27.8475 49.5098C27.7835 49.5473 27.7187 49.5826 27.6532 49.6161ZM37.3738 43.9225L41.7513 41.3552C42.9404 40.6578 43.6733 39.3696 43.6749 37.9751L43.675 37.9752V49.8747C43.675 48.4784 42.9417 47.1882 41.7513 46.49L37.3738 43.9225ZM24.0001 10.1219C24.0154 10.1129 24.0308 10.1041 24.0462 10.0953V8.18313C24.0462 7.17133 24.8537 6.35109 25.8497 6.35109C26.8457 6.35109 27.6532 7.17133 27.6532 8.18313V10.0155C27.7187 10.049 27.7835 10.0844 27.8475 10.1219L41.7513 18.2766C42.9417 18.9747 43.675 20.265 43.675 21.6613V24.0517L50.0763 27.806C51.2667 28.5042 52 29.7945 52 31.1908V16.9008C52 15.5045 51.2667 14.2143 50.0763 13.5161L27.9237 0.523615C26.7333 -0.174539 25.2667 -0.174538 24.0763 0.523615L1.9237 13.5161C0.733321 14.2143 0 15.5045 0 16.9008V31.1908C0 29.7945 0.733321 28.5042 1.9237 27.806L8.17255 24.141V21.6613C8.17255 20.265 8.90587 18.9747 10.0963 18.2766L24.0001 10.1219Z" fill="white"/>
<path d="M27.6532 10.0155V8.18313C27.6532 7.17133 26.8457 6.35109 25.8497 6.35109C24.8537 6.35109 24.0462 7.17133 24.0462 8.18313V10.0953C25.1639 9.46047 26.5159 9.43394 27.6532 10.0155Z" fill="white"/>
<path d="M24.0462 77.7497V80.2435C24.0462 81.2553 24.8537 82.0756 25.8497 82.0756C26.8457 82.0756 27.6532 81.2553 27.6532 80.2435V77.8295C26.5159 78.4112 25.1639 78.3846 24.0462 77.7497Z" fill="white"/>
</svg>
