<svg width="220" height="422" viewBox="0 0 220 422" fill="none" xmlns="http://www.w3.org/2000/svg">
<path d="M3.69509 1.84867L1.84754 1.99462e-05L0 1.84867L1.84754 3.69732L3.69509 1.84867Z" fill="#003B30"/>
<path d="M26.9202 1.84867L25.0727 1.99462e-05L23.2252 1.84867L25.0727 3.69732L26.9202 1.84867Z" fill="#003B30"/>
<path d="M50.1452 1.84867L48.2976 1.99462e-05L46.4501 1.84867L48.2976 3.69732L50.1452 1.84867Z" fill="#003B30"/>
<path d="M73.3703 1.84867L71.5228 1.99462e-05L69.6752 1.84867L71.5228 3.69732L73.3703 1.84867Z" fill="#003B30"/>
<path d="M96.5955 1.84867L94.748 1.99462e-05L92.9004 1.84867L94.748 3.69732L96.5955 1.84867Z" fill="#003B30"/>
<path d="M119.82 1.84867L117.973 1.99462e-05L116.125 1.84867L117.973 3.69732L119.82 1.84867Z" fill="#003B30"/>
<path d="M143.046 1.84867L141.198 1.99462e-05L139.35 1.84867L141.198 3.69732L143.046 1.84867Z" fill="#003B30"/>
<path d="M166.27 1.84867L164.423 1.99462e-05L162.575 1.84867L164.423 3.69732L166.27 1.84867Z" fill="#003B30"/>
<path d="M189.496 1.84867L187.648 1.99462e-05L185.801 1.84867L187.648 3.69732L189.496 1.84867Z" fill="#003B30"/>
<path d="M212.721 1.84867L210.873 1.99462e-05L209.026 1.84867L210.873 3.69732L212.721 1.84867Z" fill="#003B30"/>
<path d="M235.946 1.84867L234.098 1.99462e-05L232.251 1.84867L234.098 3.69732L235.946 1.84867Z" fill="#003B30"/>
<path d="M259.171 1.84867L257.323 1.99462e-05L255.476 1.84867L257.323 3.69732L259.171 1.84867Z" fill="#003B30"/>
<path d="M282.396 1.84867L280.549 1.99462e-05L278.701 1.84867L280.549 3.69732L282.396 1.84867Z" fill="#003B30"/>
<path d="M305.621 1.84867L303.773 1.99462e-05L301.926 1.84867L303.773 3.69732L305.621 1.84867Z" fill="#003B30"/>
<path d="M328.846 1.84867L326.999 1.99462e-05L325.151 1.84867L326.999 3.69732L328.846 1.84867Z" fill="#003B30"/>
<path d="M352.071 1.84867L350.224 1.99462e-05L348.376 1.84867L350.224 3.69732L352.071 1.84867Z" fill="#003B30"/>
<path d="M375.296 1.84867L373.449 1.99462e-05L371.601 1.84867L373.449 3.69732L375.296 1.84867Z" fill="#003B30"/>
<path d="M398.521 1.84867L396.674 1.99462e-05L394.826 1.84867L396.674 3.69732L398.521 1.84867Z" fill="#003B30"/>
<path d="M421.746 1.84867L419.899 1.99462e-05L418.051 1.84867L419.899 3.69732L421.746 1.84867Z" fill="#003B30"/>
<path d="M3.69509 25.0878L1.84754 23.2391L0 25.0878L1.84754 26.9364L3.69509 25.0878Z" fill="#003B30"/>
<path d="M26.9202 25.0878L25.0727 23.2391L23.2252 25.0878L25.0727 26.9364L26.9202 25.0878Z" fill="#003B30"/>
<path d="M50.1452 25.0878L48.2976 23.2391L46.4501 25.0878L48.2976 26.9364L50.1452 25.0878Z" fill="#003B30"/>
<path d="M73.3703 25.0878L71.5228 23.2391L69.6752 25.0878L71.5228 26.9364L73.3703 25.0878Z" fill="#003B30"/>
<path d="M96.5955 25.0878L94.748 23.2391L92.9004 25.0878L94.748 26.9364L96.5955 25.0878Z" fill="#003B30"/>
<path d="M119.82 25.0878L117.973 23.2391L116.125 25.0878L117.973 26.9364L119.82 25.0878Z" fill="#003B30"/>
<path d="M143.046 25.0878L141.198 23.2391L139.35 25.0878L141.198 26.9364L143.046 25.0878Z" fill="#003B30"/>
<path d="M166.27 25.0878L164.423 23.2391L162.575 25.0878L164.423 26.9364L166.27 25.0878Z" fill="#003B30"/>
<path d="M189.496 25.0878L187.648 23.2391L185.801 25.0878L187.648 26.9364L189.496 25.0878Z" fill="#003B30"/>
<path d="M212.721 25.0878L210.873 23.2391L209.026 25.0878L210.873 26.9364L212.721 25.0878Z" fill="#003B30"/>
<path d="M235.946 25.0878L234.098 23.2391L232.251 25.0878L234.098 26.9364L235.946 25.0878Z" fill="#003B30"/>
<path d="M259.171 25.0878L257.323 23.2391L255.476 25.0878L257.323 26.9364L259.171 25.0878Z" fill="#003B30"/>
<path d="M282.396 25.0878L280.549 23.2391L278.701 25.0878L280.549 26.9364L282.396 25.0878Z" fill="#003B30"/>
<path d="M305.621 25.0878L303.773 23.2391L301.926 25.0878L303.773 26.9364L305.621 25.0878Z" fill="#003B30"/>
<path d="M328.846 25.0878L326.999 23.2391L325.151 25.0878L326.999 26.9364L328.846 25.0878Z" fill="#003B30"/>
<path d="M352.071 25.0878L350.224 23.2391L348.376 25.0878L350.224 26.9364L352.071 25.0878Z" fill="#003B30"/>
<path d="M375.296 25.0878L373.449 23.2391L371.601 25.0878L373.449 26.9364L375.296 25.0878Z" fill="#003B30"/>
<path d="M398.521 25.0878L396.674 23.2391L394.826 25.0878L396.674 26.9364L398.521 25.0878Z" fill="#003B30"/>
<path d="M421.746 25.0878L419.899 23.2391L418.051 25.0878L419.899 26.9364L421.746 25.0878Z" fill="#003B30"/>
<path d="M3.69509 48.3269L1.84754 46.4783L0 48.3269L1.84754 50.1756L3.69509 48.3269Z" fill="#003B30"/>
<path d="M26.9202 48.3269L25.0727 46.4783L23.2252 48.3269L25.0727 50.1756L26.9202 48.3269Z" fill="#003B30"/>
<path d="M50.1452 48.3269L48.2976 46.4783L46.4501 48.3269L48.2976 50.1756L50.1452 48.3269Z" fill="#003B30"/>
<path d="M73.3703 48.3269L71.5228 46.4783L69.6752 48.3269L71.5228 50.1756L73.3703 48.3269Z" fill="#003B30"/>
<path d="M96.5955 48.3269L94.748 46.4783L92.9004 48.3269L94.748 50.1756L96.5955 48.3269Z" fill="#003B30"/>
<path d="M119.82 48.3269L117.973 46.4783L116.125 48.3269L117.973 50.1756L119.82 48.3269Z" fill="#003B30"/>
<path d="M143.046 48.3269L141.198 46.4783L139.35 48.3269L141.198 50.1756L143.046 48.3269Z" fill="#003B30"/>
<path d="M166.27 48.3269L164.423 46.4783L162.575 48.3269L164.423 50.1756L166.27 48.3269Z" fill="#003B30"/>
<path d="M189.496 48.3269L187.648 46.4783L185.801 48.3269L187.648 50.1756L189.496 48.3269Z" fill="#003B30"/>
<path d="M212.721 48.3269L210.873 46.4783L209.026 48.3269L210.873 50.1756L212.721 48.3269Z" fill="#003B30"/>
<path d="M235.946 48.3269L234.098 46.4783L232.251 48.3269L234.098 50.1756L235.946 48.3269Z" fill="#003B30"/>
<path d="M259.171 48.3269L257.323 46.4783L255.476 48.3269L257.323 50.1756L259.171 48.3269Z" fill="#003B30"/>
<path d="M282.396 48.3269L280.549 46.4783L278.701 48.3269L280.549 50.1756L282.396 48.3269Z" fill="#003B30"/>
<path d="M305.621 48.3269L303.773 46.4783L301.926 48.3269L303.773 50.1756L305.621 48.3269Z" fill="#003B30"/>
<path d="M328.846 48.3269L326.999 46.4783L325.151 48.3269L326.999 50.1756L328.846 48.3269Z" fill="#003B30"/>
<path d="M352.071 48.3269L350.224 46.4783L348.376 48.3269L350.224 50.1756L352.071 48.3269Z" fill="#003B30"/>
<path d="M375.296 48.3269L373.449 46.4783L371.601 48.3269L373.449 50.1756L375.296 48.3269Z" fill="#003B30"/>
<path d="M398.521 48.3269L396.674 46.4783L394.826 48.3269L396.674 50.1756L398.521 48.3269Z" fill="#003B30"/>
<path d="M421.746 48.3269L419.899 46.4783L418.051 48.3269L419.899 50.1756L421.746 48.3269Z" fill="#003B30"/>
<path d="M3.69509 71.566L1.84754 69.7174L0 71.566L1.84754 73.4147L3.69509 71.566Z" fill="#003B30"/>
<path d="M26.9202 71.566L25.0727 69.7174L23.2252 71.566L25.0727 73.4147L26.9202 71.566Z" fill="#003B30"/>
<path d="M50.1452 71.566L48.2976 69.7174L46.4501 71.566L48.2976 73.4147L50.1452 71.566Z" fill="#003B30"/>
<path d="M73.3703 71.566L71.5228 69.7174L69.6752 71.566L71.5228 73.4147L73.3703 71.566Z" fill="#003B30"/>
<path d="M96.5955 71.566L94.748 69.7174L92.9004 71.566L94.748 73.4147L96.5955 71.566Z" fill="#003B30"/>
<path d="M119.82 71.566L117.973 69.7174L116.125 71.566L117.973 73.4147L119.82 71.566Z" fill="#003B30"/>
<path d="M143.046 71.566L141.198 69.7174L139.35 71.566L141.198 73.4147L143.046 71.566Z" fill="#003B30"/>
<path d="M166.27 71.566L164.423 69.7174L162.575 71.566L164.423 73.4147L166.27 71.566Z" fill="#003B30"/>
<path d="M189.496 71.566L187.648 69.7174L185.801 71.566L187.648 73.4147L189.496 71.566Z" fill="#003B30"/>
<path d="M212.721 71.566L210.873 69.7174L209.026 71.566L210.873 73.4147L212.721 71.566Z" fill="#003B30"/>
<path d="M235.946 71.566L234.098 69.7174L232.251 71.566L234.098 73.4147L235.946 71.566Z" fill="#003B30"/>
<path d="M259.171 71.566L257.323 69.7174L255.476 71.566L257.323 73.4147L259.171 71.566Z" fill="#003B30"/>
<path d="M282.396 71.566L280.549 69.7174L278.701 71.566L280.549 73.4147L282.396 71.566Z" fill="#003B30"/>
<path d="M305.621 71.566L303.773 69.7174L301.926 71.566L303.773 73.4147L305.621 71.566Z" fill="#003B30"/>
<path d="M328.846 71.566L326.999 69.7174L325.151 71.566L326.999 73.4147L328.846 71.566Z" fill="#003B30"/>
<path d="M352.071 71.566L350.224 69.7174L348.376 71.566L350.224 73.4147L352.071 71.566Z" fill="#003B30"/>
<path d="M375.296 71.566L373.449 69.7174L371.601 71.566L373.449 73.4147L375.296 71.566Z" fill="#003B30"/>
<path d="M398.521 71.566L396.674 69.7174L394.826 71.566L396.674 73.4147L398.521 71.566Z" fill="#003B30"/>
<path d="M421.746 71.566L419.899 69.7174L418.051 71.566L419.899 73.4147L421.746 71.566Z" fill="#003B30"/>
<path d="M3.69509 94.8049L1.84754 92.9562L0 94.8049L1.84754 96.6535L3.69509 94.8049Z" fill="#003B30"/>
<path d="M26.9202 94.8049L25.0727 92.9562L23.2252 94.8049L25.0727 96.6535L26.9202 94.8049Z" fill="#003B30"/>
<path d="M50.1452 94.8049L48.2976 92.9562L46.4501 94.8049L48.2976 96.6535L50.1452 94.8049Z" fill="#003B30"/>
<path d="M73.3703 94.8049L71.5228 92.9562L69.6752 94.8049L71.5228 96.6535L73.3703 94.8049Z" fill="#003B30"/>
<path d="M96.5955 94.8049L94.748 92.9562L92.9004 94.8049L94.748 96.6535L96.5955 94.8049Z" fill="#003B30"/>
<path d="M119.82 94.8049L117.973 92.9562L116.125 94.8049L117.973 96.6535L119.82 94.8049Z" fill="#003B30"/>
<path d="M143.046 94.8049L141.198 92.9562L139.35 94.8049L141.198 96.6535L143.046 94.8049Z" fill="#003B30"/>
<path d="M166.27 94.8049L164.423 92.9562L162.575 94.8049L164.423 96.6535L166.27 94.8049Z" fill="#003B30"/>
<path d="M189.496 94.8049L187.648 92.9562L185.801 94.8049L187.648 96.6535L189.496 94.8049Z" fill="#003B30"/>
<path d="M212.721 94.8049L210.873 92.9562L209.026 94.8049L210.873 96.6535L212.721 94.8049Z" fill="#003B30"/>
<path d="M235.946 94.8049L234.098 92.9562L232.251 94.8049L234.098 96.6535L235.946 94.8049Z" fill="#003B30"/>
<path d="M259.171 94.8049L257.323 92.9562L255.476 94.8049L257.323 96.6535L259.171 94.8049Z" fill="#003B30"/>
<path d="M282.396 94.8049L280.549 92.9562L278.701 94.8049L280.549 96.6535L282.396 94.8049Z" fill="#003B30"/>
<path d="M305.621 94.8049L303.773 92.9562L301.926 94.8049L303.773 96.6535L305.621 94.8049Z" fill="#003B30"/>
<path d="M328.846 94.8049L326.999 92.9562L325.151 94.8049L326.999 96.6535L328.846 94.8049Z" fill="#003B30"/>
<path d="M352.071 94.8049L350.224 92.9562L348.376 94.8049L350.224 96.6535L352.071 94.8049Z" fill="#003B30"/>
<path d="M375.296 94.8049L373.449 92.9562L371.601 94.8049L373.449 96.6535L375.296 94.8049Z" fill="#003B30"/>
<path d="M398.521 94.8049L396.674 92.9562L394.826 94.8049L396.674 96.6535L398.521 94.8049Z" fill="#003B30"/>
<path d="M421.746 94.8049L419.899 92.9562L418.051 94.8049L419.899 96.6535L421.746 94.8049Z" fill="#003B30"/>
<path d="M3.69509 118.044L1.84754 116.195L0 118.044L1.84754 119.893L3.69509 118.044Z" fill="#003B30"/>
<path d="M26.9202 118.044L25.0727 116.195L23.2252 118.044L25.0727 119.893L26.9202 118.044Z" fill="#003B30"/>
<path d="M50.1452 118.044L48.2976 116.195L46.4501 118.044L48.2976 119.893L50.1452 118.044Z" fill="#003B30"/>
<path d="M73.3703 118.044L71.5228 116.195L69.6752 118.044L71.5228 119.893L73.3703 118.044Z" fill="#003B30"/>
<path d="M96.5955 118.044L94.748 116.195L92.9004 118.044L94.748 119.893L96.5955 118.044Z" fill="#003B30"/>
<path d="M119.82 118.044L117.973 116.195L116.125 118.044L117.973 119.893L119.82 118.044Z" fill="#003B30"/>
<path d="M143.046 118.044L141.198 116.195L139.35 118.044L141.198 119.893L143.046 118.044Z" fill="#003B30"/>
<path d="M166.27 118.044L164.423 116.195L162.575 118.044L164.423 119.893L166.27 118.044Z" fill="#003B30"/>
<path d="M189.496 118.044L187.648 116.195L185.801 118.044L187.648 119.893L189.496 118.044Z" fill="#003B30"/>
<path d="M212.721 118.044L210.873 116.195L209.026 118.044L210.873 119.893L212.721 118.044Z" fill="#003B30"/>
<path d="M235.946 118.044L234.098 116.195L232.251 118.044L234.098 119.893L235.946 118.044Z" fill="#003B30"/>
<path d="M259.171 118.044L257.323 116.195L255.476 118.044L257.323 119.893L259.171 118.044Z" fill="#003B30"/>
<path d="M282.396 118.044L280.549 116.195L278.701 118.044L280.549 119.893L282.396 118.044Z" fill="#003B30"/>
<path d="M305.621 118.044L303.773 116.195L301.926 118.044L303.773 119.893L305.621 118.044Z" fill="#003B30"/>
<path d="M328.846 118.044L326.999 116.195L325.151 118.044L326.999 119.893L328.846 118.044Z" fill="#003B30"/>
<path d="M352.071 118.044L350.224 116.195L348.376 118.044L350.224 119.893L352.071 118.044Z" fill="#003B30"/>
<path d="M375.296 118.044L373.449 116.195L371.601 118.044L373.449 119.893L375.296 118.044Z" fill="#003B30"/>
<path d="M398.521 118.044L396.674 116.195L394.826 118.044L396.674 119.893L398.521 118.044Z" fill="#003B30"/>
<path d="M421.746 118.044L419.899 116.195L418.051 118.044L419.899 119.893L421.746 118.044Z" fill="#003B30"/>
<path d="M3.69509 141.283L1.84754 139.434L0 141.283L1.84754 143.132L3.69509 141.283Z" fill="#003B30"/>
<path d="M26.9202 141.283L25.0727 139.434L23.2252 141.283L25.0727 143.132L26.9202 141.283Z" fill="#003B30"/>
<path d="M50.1452 141.283L48.2976 139.434L46.4501 141.283L48.2976 143.132L50.1452 141.283Z" fill="#003B30"/>
<path d="M73.3703 141.283L71.5228 139.434L69.6752 141.283L71.5228 143.132L73.3703 141.283Z" fill="#003B30"/>
<path d="M96.5955 141.283L94.748 139.434L92.9004 141.283L94.748 143.132L96.5955 141.283Z" fill="#003B30"/>
<path d="M119.82 141.283L117.973 139.434L116.125 141.283L117.973 143.132L119.82 141.283Z" fill="#003B30"/>
<path d="M143.046 141.283L141.198 139.434L139.35 141.283L141.198 143.132L143.046 141.283Z" fill="#003B30"/>
<path d="M166.27 141.283L164.423 139.434L162.575 141.283L164.423 143.132L166.27 141.283Z" fill="#003B30"/>
<path d="M189.496 141.283L187.648 139.434L185.801 141.283L187.648 143.132L189.496 141.283Z" fill="#003B30"/>
<path d="M212.721 141.283L210.873 139.434L209.026 141.283L210.873 143.132L212.721 141.283Z" fill="#003B30"/>
<path d="M235.946 141.283L234.098 139.434L232.251 141.283L234.098 143.132L235.946 141.283Z" fill="#003B30"/>
<path d="M259.171 141.283L257.323 139.434L255.476 141.283L257.323 143.132L259.171 141.283Z" fill="#003B30"/>
<path d="M282.396 141.283L280.549 139.434L278.701 141.283L280.549 143.132L282.396 141.283Z" fill="#003B30"/>
<path d="M305.621 141.283L303.773 139.434L301.926 141.283L303.773 143.132L305.621 141.283Z" fill="#003B30"/>
<path d="M328.846 141.283L326.999 139.434L325.151 141.283L326.999 143.132L328.846 141.283Z" fill="#003B30"/>
<path d="M352.071 141.283L350.224 139.434L348.376 141.283L350.224 143.132L352.071 141.283Z" fill="#003B30"/>
<path d="M375.296 141.283L373.449 139.434L371.601 141.283L373.449 143.132L375.296 141.283Z" fill="#003B30"/>
<path d="M398.521 141.283L396.674 139.434L394.826 141.283L396.674 143.132L398.521 141.283Z" fill="#003B30"/>
<path d="M421.746 141.283L419.899 139.434L418.051 141.283L419.899 143.132L421.746 141.283Z" fill="#003B30"/>
<path d="M3.69509 164.522L1.84754 162.673L0 164.522L1.84754 166.37L3.69509 164.522Z" fill="#003B30"/>
<path d="M26.9202 164.522L25.0727 162.673L23.2252 164.522L25.0727 166.37L26.9202 164.522Z" fill="#003B30"/>
<path d="M50.1452 164.522L48.2976 162.673L46.4501 164.522L48.2976 166.37L50.1452 164.522Z" fill="#003B30"/>
<path d="M73.3703 164.522L71.5228 162.673L69.6752 164.522L71.5228 166.37L73.3703 164.522Z" fill="#003B30"/>
<path d="M96.5955 164.522L94.748 162.673L92.9004 164.522L94.748 166.37L96.5955 164.522Z" fill="#003B30"/>
<path d="M119.82 164.522L117.973 162.673L116.125 164.522L117.973 166.37L119.82 164.522Z" fill="#003B30"/>
<path d="M143.046 164.522L141.198 162.673L139.35 164.522L141.198 166.37L143.046 164.522Z" fill="#003B30"/>
<path d="M166.27 164.522L164.423 162.673L162.575 164.522L164.423 166.37L166.27 164.522Z" fill="#003B30"/>
<path d="M189.496 164.522L187.648 162.673L185.801 164.522L187.648 166.37L189.496 164.522Z" fill="#003B30"/>
<path d="M212.721 164.522L210.873 162.673L209.026 164.522L210.873 166.37L212.721 164.522Z" fill="#003B30"/>
<path d="M235.946 164.522L234.098 162.673L232.251 164.522L234.098 166.37L235.946 164.522Z" fill="#003B30"/>
<path d="M259.171 164.522L257.323 162.673L255.476 164.522L257.323 166.37L259.171 164.522Z" fill="#003B30"/>
<path d="M282.396 164.522L280.549 162.673L278.701 164.522L280.549 166.37L282.396 164.522Z" fill="#003B30"/>
<path d="M305.621 164.522L303.773 162.673L301.926 164.522L303.773 166.37L305.621 164.522Z" fill="#003B30"/>
<path d="M328.846 164.522L326.999 162.673L325.151 164.522L326.999 166.37L328.846 164.522Z" fill="#003B30"/>
<path d="M352.071 164.522L350.224 162.673L348.376 164.522L350.224 166.37L352.071 164.522Z" fill="#003B30"/>
<path d="M375.296 164.522L373.449 162.673L371.601 164.522L373.449 166.37L375.296 164.522Z" fill="#003B30"/>
<path d="M398.521 164.522L396.674 162.673L394.826 164.522L396.674 166.37L398.521 164.522Z" fill="#003B30"/>
<path d="M421.746 164.522L419.899 162.673L418.051 164.522L419.899 166.37L421.746 164.522Z" fill="#003B30"/>
<path d="M3.69509 187.761L1.84754 185.912L0 187.761L1.84754 189.61L3.69509 187.761Z" fill="#003B30"/>
<path d="M26.9202 187.761L25.0727 185.912L23.2252 187.761L25.0727 189.61L26.9202 187.761Z" fill="#003B30"/>
<path d="M50.1452 187.761L48.2976 185.912L46.4501 187.761L48.2976 189.61L50.1452 187.761Z" fill="#003B30"/>
<path d="M73.3703 187.761L71.5228 185.912L69.6752 187.761L71.5228 189.61L73.3703 187.761Z" fill="#003B30"/>
<path d="M96.5955 187.761L94.748 185.912L92.9004 187.761L94.748 189.61L96.5955 187.761Z" fill="#003B30"/>
<path d="M119.82 187.761L117.973 185.912L116.125 187.761L117.973 189.61L119.82 187.761Z" fill="#003B30"/>
<path d="M143.046 187.761L141.198 185.912L139.35 187.761L141.198 189.61L143.046 187.761Z" fill="#003B30"/>
<path d="M166.27 187.761L164.423 185.912L162.575 187.761L164.423 189.61L166.27 187.761Z" fill="#003B30"/>
<path d="M189.496 187.761L187.648 185.912L185.801 187.761L187.648 189.61L189.496 187.761Z" fill="#003B30"/>
<path d="M212.721 187.761L210.873 185.912L209.026 187.761L210.873 189.61L212.721 187.761Z" fill="#003B30"/>
<path d="M235.946 187.761L234.098 185.912L232.251 187.761L234.098 189.61L235.946 187.761Z" fill="#003B30"/>
<path d="M259.171 187.761L257.323 185.912L255.476 187.761L257.323 189.61L259.171 187.761Z" fill="#003B30"/>
<path d="M282.396 187.761L280.549 185.912L278.701 187.761L280.549 189.61L282.396 187.761Z" fill="#003B30"/>
<path d="M305.621 187.761L303.773 185.912L301.926 187.761L303.773 189.61L305.621 187.761Z" fill="#003B30"/>
<path d="M328.846 187.761L326.999 185.912L325.151 187.761L326.999 189.61L328.846 187.761Z" fill="#003B30"/>
<path d="M352.071 187.761L350.224 185.912L348.376 187.761L350.224 189.61L352.071 187.761Z" fill="#003B30"/>
<path d="M375.296 187.761L373.449 185.912L371.601 187.761L373.449 189.61L375.296 187.761Z" fill="#003B30"/>
<path d="M398.521 187.761L396.674 185.912L394.826 187.761L396.674 189.61L398.521 187.761Z" fill="#003B30"/>
<path d="M421.746 187.761L419.899 185.912L418.051 187.761L419.899 189.61L421.746 187.761Z" fill="#003B30"/>
<path d="M3.69509 211L1.84754 209.152L0 211L1.84754 212.849L3.69509 211Z" fill="#003B30"/>
<path d="M26.9202 211L25.0727 209.152L23.2252 211L25.0727 212.849L26.9202 211Z" fill="#003B30"/>
<path d="M50.1452 211L48.2976 209.152L46.4501 211L48.2976 212.849L50.1452 211Z" fill="#003B30"/>
<path d="M73.3703 211L71.5228 209.152L69.6752 211L71.5228 212.849L73.3703 211Z" fill="#003B30"/>
<path d="M96.5955 211L94.748 209.152L92.9004 211L94.748 212.849L96.5955 211Z" fill="#003B30"/>
<path d="M119.82 211L117.973 209.152L116.125 211L117.973 212.849L119.82 211Z" fill="#003B30"/>
<path d="M143.046 211L141.198 209.152L139.35 211L141.198 212.849L143.046 211Z" fill="#003B30"/>
<path d="M166.27 211L164.423 209.152L162.575 211L164.423 212.849L166.27 211Z" fill="#003B30"/>
<path d="M189.496 211L187.648 209.152L185.801 211L187.648 212.849L189.496 211Z" fill="#003B30"/>
<path d="M212.721 211L210.873 209.152L209.026 211L210.873 212.849L212.721 211Z" fill="#003B30"/>
<path d="M235.946 211L234.098 209.152L232.251 211L234.098 212.849L235.946 211Z" fill="#003B30"/>
<path d="M259.171 211L257.323 209.152L255.476 211L257.323 212.849L259.171 211Z" fill="#003B30"/>
<path d="M282.396 211L280.549 209.152L278.701 211L280.549 212.849L282.396 211Z" fill="#003B30"/>
<path d="M305.621 211L303.773 209.152L301.926 211L303.773 212.849L305.621 211Z" fill="#003B30"/>
<path d="M328.846 211L326.999 209.152L325.151 211L326.999 212.849L328.846 211Z" fill="#003B30"/>
<path d="M352.071 211L350.224 209.152L348.376 211L350.224 212.849L352.071 211Z" fill="#003B30"/>
<path d="M375.296 211L373.449 209.152L371.601 211L373.449 212.849L375.296 211Z" fill="#003B30"/>
<path d="M398.521 211L396.674 209.152L394.826 211L396.674 212.849L398.521 211Z" fill="#003B30"/>
<path d="M421.746 211L419.899 209.152L418.051 211L419.899 212.849L421.746 211Z" fill="#003B30"/>
<path d="M3.69509 234.239L1.84754 232.39L0 234.239L1.84754 236.088L3.69509 234.239Z" fill="#003B30"/>
<path d="M26.9202 234.239L25.0727 232.39L23.2252 234.239L25.0727 236.088L26.9202 234.239Z" fill="#003B30"/>
<path d="M50.1452 234.239L48.2976 232.39L46.4501 234.239L48.2976 236.088L50.1452 234.239Z" fill="#003B30"/>
<path d="M73.3703 234.239L71.5228 232.39L69.6752 234.239L71.5228 236.088L73.3703 234.239Z" fill="#003B30"/>
<path d="M96.5955 234.239L94.748 232.39L92.9004 234.239L94.748 236.088L96.5955 234.239Z" fill="#003B30"/>
<path d="M119.82 234.239L117.973 232.39L116.125 234.239L117.973 236.088L119.82 234.239Z" fill="#003B30"/>
<path d="M143.046 234.239L141.198 232.39L139.35 234.239L141.198 236.088L143.046 234.239Z" fill="#003B30"/>
<path d="M166.27 234.239L164.423 232.39L162.575 234.239L164.423 236.088L166.27 234.239Z" fill="#003B30"/>
<path d="M189.496 234.239L187.648 232.39L185.801 234.239L187.648 236.088L189.496 234.239Z" fill="#003B30"/>
<path d="M212.721 234.239L210.873 232.39L209.026 234.239L210.873 236.088L212.721 234.239Z" fill="#003B30"/>
<path d="M235.946 234.239L234.098 232.39L232.251 234.239L234.098 236.088L235.946 234.239Z" fill="#003B30"/>
<path d="M259.171 234.239L257.323 232.39L255.476 234.239L257.323 236.088L259.171 234.239Z" fill="#003B30"/>
<path d="M282.396 234.239L280.549 232.39L278.701 234.239L280.549 236.088L282.396 234.239Z" fill="#003B30"/>
<path d="M305.621 234.239L303.773 232.39L301.926 234.239L303.773 236.088L305.621 234.239Z" fill="#003B30"/>
<path d="M328.846 234.239L326.999 232.39L325.151 234.239L326.999 236.088L328.846 234.239Z" fill="#003B30"/>
<path d="M352.071 234.239L350.224 232.39L348.376 234.239L350.224 236.088L352.071 234.239Z" fill="#003B30"/>
<path d="M375.296 234.239L373.449 232.39L371.601 234.239L373.449 236.088L375.296 234.239Z" fill="#003B30"/>
<path d="M398.521 234.239L396.674 232.39L394.826 234.239L396.674 236.088L398.521 234.239Z" fill="#003B30"/>
<path d="M421.746 234.239L419.899 232.39L418.051 234.239L419.899 236.088L421.746 234.239Z" fill="#003B30"/>
<path d="M3.69509 257.478L1.84754 255.629L0 257.478L1.84754 259.326L3.69509 257.478Z" fill="#003B30"/>
<path d="M26.9202 257.478L25.0727 255.629L23.2252 257.478L25.0727 259.326L26.9202 257.478Z" fill="#003B30"/>
<path d="M50.1452 257.478L48.2976 255.629L46.4501 257.478L48.2976 259.326L50.1452 257.478Z" fill="#003B30"/>
<path d="M73.3703 257.478L71.5228 255.629L69.6752 257.478L71.5228 259.326L73.3703 257.478Z" fill="#003B30"/>
<path d="M96.5955 257.478L94.748 255.629L92.9004 257.478L94.748 259.326L96.5955 257.478Z" fill="#003B30"/>
<path d="M119.82 257.478L117.973 255.629L116.125 257.478L117.973 259.326L119.82 257.478Z" fill="#003B30"/>
<path d="M143.046 257.478L141.198 255.629L139.35 257.478L141.198 259.326L143.046 257.478Z" fill="#003B30"/>
<path d="M166.27 257.478L164.423 255.629L162.575 257.478L164.423 259.326L166.27 257.478Z" fill="#003B30"/>
<path d="M189.496 257.478L187.648 255.629L185.801 257.478L187.648 259.326L189.496 257.478Z" fill="#003B30"/>
<path d="M212.721 257.478L210.873 255.629L209.026 257.478L210.873 259.326L212.721 257.478Z" fill="#003B30"/>
<path d="M235.946 257.478L234.098 255.629L232.251 257.478L234.098 259.326L235.946 257.478Z" fill="#003B30"/>
<path d="M259.171 257.478L257.323 255.629L255.476 257.478L257.323 259.326L259.171 257.478Z" fill="#003B30"/>
<path d="M282.396 257.478L280.549 255.629L278.701 257.478L280.549 259.326L282.396 257.478Z" fill="#003B30"/>
<path d="M305.621 257.478L303.773 255.629L301.926 257.478L303.773 259.326L305.621 257.478Z" fill="#003B30"/>
<path d="M328.846 257.478L326.999 255.629L325.151 257.478L326.999 259.326L328.846 257.478Z" fill="#003B30"/>
<path d="M352.071 257.478L350.224 255.629L348.376 257.478L350.224 259.326L352.071 257.478Z" fill="#003B30"/>
<path d="M375.296 257.478L373.449 255.629L371.601 257.478L373.449 259.326L375.296 257.478Z" fill="#003B30"/>
<path d="M398.521 257.478L396.674 255.629L394.826 257.478L396.674 259.326L398.521 257.478Z" fill="#003B30"/>
<path d="M421.746 257.478L419.899 255.629L418.051 257.478L419.899 259.326L421.746 257.478Z" fill="#003B30"/>
<path d="M3.69509 280.717L1.84754 278.869L0 280.717L1.84754 282.566L3.69509 280.717Z" fill="#003B30"/>
<path d="M26.9202 280.717L25.0727 278.869L23.2252 280.717L25.0727 282.566L26.9202 280.717Z" fill="#003B30"/>
<path d="M50.1452 280.717L48.2976 278.869L46.4501 280.717L48.2976 282.566L50.1452 280.717Z" fill="#003B30"/>
<path d="M73.3703 280.717L71.5228 278.869L69.6752 280.717L71.5228 282.566L73.3703 280.717Z" fill="#003B30"/>
<path d="M96.5955 280.717L94.748 278.869L92.9004 280.717L94.748 282.566L96.5955 280.717Z" fill="#003B30"/>
<path d="M119.82 280.717L117.973 278.869L116.125 280.717L117.973 282.566L119.82 280.717Z" fill="#003B30"/>
<path d="M143.046 280.717L141.198 278.869L139.35 280.717L141.198 282.566L143.046 280.717Z" fill="#003B30"/>
<path d="M166.27 280.717L164.423 278.869L162.575 280.717L164.423 282.566L166.27 280.717Z" fill="#003B30"/>
<path d="M189.496 280.717L187.648 278.869L185.801 280.717L187.648 282.566L189.496 280.717Z" fill="#003B30"/>
<path d="M212.721 280.717L210.873 278.869L209.026 280.717L210.873 282.566L212.721 280.717Z" fill="#003B30"/>
<path d="M235.946 280.717L234.098 278.869L232.251 280.717L234.098 282.566L235.946 280.717Z" fill="#003B30"/>
<path d="M259.171 280.717L257.323 278.869L255.476 280.717L257.323 282.566L259.171 280.717Z" fill="#003B30"/>
<path d="M282.396 280.717L280.549 278.869L278.701 280.717L280.549 282.566L282.396 280.717Z" fill="#003B30"/>
<path d="M305.621 280.717L303.773 278.869L301.926 280.717L303.773 282.566L305.621 280.717Z" fill="#003B30"/>
<path d="M328.846 280.717L326.999 278.869L325.151 280.717L326.999 282.566L328.846 280.717Z" fill="#003B30"/>
<path d="M352.071 280.717L350.224 278.869L348.376 280.717L350.224 282.566L352.071 280.717Z" fill="#003B30"/>
<path d="M375.296 280.717L373.449 278.869L371.601 280.717L373.449 282.566L375.296 280.717Z" fill="#003B30"/>
<path d="M398.521 280.717L396.674 278.869L394.826 280.717L396.674 282.566L398.521 280.717Z" fill="#003B30"/>
<path d="M421.746 280.717L419.899 278.869L418.051 280.717L419.899 282.566L421.746 280.717Z" fill="#003B30"/>
<path d="M3.69509 303.956L1.84754 302.107L0 303.956L1.84754 305.805L3.69509 303.956Z" fill="#003B30"/>
<path d="M26.9202 303.956L25.0727 302.107L23.2252 303.956L25.0727 305.805L26.9202 303.956Z" fill="#003B30"/>
<path d="M50.1452 303.956L48.2976 302.107L46.4501 303.956L48.2976 305.805L50.1452 303.956Z" fill="#003B30"/>
<path d="M73.3703 303.956L71.5228 302.107L69.6752 303.956L71.5228 305.805L73.3703 303.956Z" fill="#003B30"/>
<path d="M96.5955 303.956L94.748 302.107L92.9004 303.956L94.748 305.805L96.5955 303.956Z" fill="#003B30"/>
<path d="M119.82 303.956L117.973 302.107L116.125 303.956L117.973 305.805L119.82 303.956Z" fill="#003B30"/>
<path d="M143.046 303.956L141.198 302.107L139.35 303.956L141.198 305.805L143.046 303.956Z" fill="#003B30"/>
<path d="M166.27 303.956L164.423 302.107L162.575 303.956L164.423 305.805L166.27 303.956Z" fill="#003B30"/>
<path d="M189.496 303.956L187.648 302.107L185.801 303.956L187.648 305.805L189.496 303.956Z" fill="#003B30"/>
<path d="M212.721 303.956L210.873 302.107L209.026 303.956L210.873 305.805L212.721 303.956Z" fill="#003B30"/>
<path d="M235.946 303.956L234.098 302.107L232.251 303.956L234.098 305.805L235.946 303.956Z" fill="#003B30"/>
<path d="M259.171 303.956L257.323 302.107L255.476 303.956L257.323 305.805L259.171 303.956Z" fill="#003B30"/>
<path d="M282.396 303.956L280.549 302.107L278.701 303.956L280.549 305.805L282.396 303.956Z" fill="#003B30"/>
<path d="M305.621 303.956L303.773 302.107L301.926 303.956L303.773 305.805L305.621 303.956Z" fill="#003B30"/>
<path d="M328.846 303.956L326.999 302.107L325.151 303.956L326.999 305.805L328.846 303.956Z" fill="#003B30"/>
<path d="M352.071 303.956L350.224 302.107L348.376 303.956L350.224 305.805L352.071 303.956Z" fill="#003B30"/>
<path d="M375.296 303.956L373.449 302.107L371.601 303.956L373.449 305.805L375.296 303.956Z" fill="#003B30"/>
<path d="M398.521 303.956L396.674 302.107L394.826 303.956L396.674 305.805L398.521 303.956Z" fill="#003B30"/>
<path d="M421.746 303.956L419.899 302.107L418.051 303.956L419.899 305.805L421.746 303.956Z" fill="#003B30"/>
<path d="M3.69509 327.195L1.84754 325.346L0 327.195L1.84754 329.044L3.69509 327.195Z" fill="#003B30"/>
<path d="M26.9202 327.195L25.0727 325.346L23.2252 327.195L25.0727 329.044L26.9202 327.195Z" fill="#003B30"/>
<path d="M50.1452 327.195L48.2976 325.346L46.4501 327.195L48.2976 329.044L50.1452 327.195Z" fill="#003B30"/>
<path d="M73.3703 327.195L71.5228 325.346L69.6752 327.195L71.5228 329.044L73.3703 327.195Z" fill="#003B30"/>
<path d="M96.5955 327.195L94.748 325.346L92.9004 327.195L94.748 329.044L96.5955 327.195Z" fill="#003B30"/>
<path d="M119.82 327.195L117.973 325.346L116.125 327.195L117.973 329.044L119.82 327.195Z" fill="#003B30"/>
<path d="M143.046 327.195L141.198 325.346L139.35 327.195L141.198 329.044L143.046 327.195Z" fill="#003B30"/>
<path d="M166.27 327.195L164.423 325.346L162.575 327.195L164.423 329.044L166.27 327.195Z" fill="#003B30"/>
<path d="M189.496 327.195L187.648 325.346L185.801 327.195L187.648 329.044L189.496 327.195Z" fill="#003B30"/>
<path d="M212.721 327.195L210.873 325.346L209.026 327.195L210.873 329.044L212.721 327.195Z" fill="#003B30"/>
<path d="M235.946 327.195L234.098 325.346L232.251 327.195L234.098 329.044L235.946 327.195Z" fill="#003B30"/>
<path d="M259.171 327.195L257.323 325.346L255.476 327.195L257.323 329.044L259.171 327.195Z" fill="#003B30"/>
<path d="M282.396 327.195L280.549 325.346L278.701 327.195L280.549 329.044L282.396 327.195Z" fill="#003B30"/>
<path d="M305.621 327.195L303.773 325.346L301.926 327.195L303.773 329.044L305.621 327.195Z" fill="#003B30"/>
<path d="M328.846 327.195L326.999 325.346L325.151 327.195L326.999 329.044L328.846 327.195Z" fill="#003B30"/>
<path d="M352.071 327.195L350.224 325.346L348.376 327.195L350.224 329.044L352.071 327.195Z" fill="#003B30"/>
<path d="M375.296 327.195L373.449 325.346L371.601 327.195L373.449 329.044L375.296 327.195Z" fill="#003B30"/>
<path d="M398.521 327.195L396.674 325.346L394.826 327.195L396.674 329.044L398.521 327.195Z" fill="#003B30"/>
<path d="M421.746 327.195L419.899 325.346L418.051 327.195L419.899 329.044L421.746 327.195Z" fill="#003B30"/>
<path d="M3.69509 350.434L1.84754 348.586L0 350.434L1.84754 352.283L3.69509 350.434Z" fill="#003B30"/>
<path d="M26.9202 350.434L25.0727 348.586L23.2252 350.434L25.0727 352.283L26.9202 350.434Z" fill="#003B30"/>
<path d="M50.1452 350.434L48.2976 348.586L46.4501 350.434L48.2976 352.283L50.1452 350.434Z" fill="#003B30"/>
<path d="M73.3703 350.434L71.5228 348.586L69.6752 350.434L71.5228 352.283L73.3703 350.434Z" fill="#003B30"/>
<path d="M96.5955 350.434L94.748 348.586L92.9004 350.434L94.748 352.283L96.5955 350.434Z" fill="#003B30"/>
<path d="M119.82 350.434L117.973 348.586L116.125 350.434L117.973 352.283L119.82 350.434Z" fill="#003B30"/>
<path d="M143.046 350.434L141.198 348.586L139.35 350.434L141.198 352.283L143.046 350.434Z" fill="#003B30"/>
<path d="M166.27 350.434L164.423 348.586L162.575 350.434L164.423 352.283L166.27 350.434Z" fill="#003B30"/>
<path d="M189.496 350.434L187.648 348.586L185.801 350.434L187.648 352.283L189.496 350.434Z" fill="#003B30"/>
<path d="M212.721 350.434L210.873 348.586L209.026 350.434L210.873 352.283L212.721 350.434Z" fill="#003B30"/>
<path d="M235.946 350.434L234.098 348.586L232.251 350.434L234.098 352.283L235.946 350.434Z" fill="#003B30"/>
<path d="M259.171 350.434L257.323 348.586L255.476 350.434L257.323 352.283L259.171 350.434Z" fill="#003B30"/>
<path d="M282.396 350.434L280.549 348.586L278.701 350.434L280.549 352.283L282.396 350.434Z" fill="#003B30"/>
<path d="M305.621 350.434L303.773 348.586L301.926 350.434L303.773 352.283L305.621 350.434Z" fill="#003B30"/>
<path d="M328.846 350.434L326.999 348.586L325.151 350.434L326.999 352.283L328.846 350.434Z" fill="#003B30"/>
<path d="M352.071 350.434L350.224 348.586L348.376 350.434L350.224 352.283L352.071 350.434Z" fill="#003B30"/>
<path d="M375.296 350.434L373.449 348.586L371.601 350.434L373.449 352.283L375.296 350.434Z" fill="#003B30"/>
<path d="M398.521 350.434L396.674 348.586L394.826 350.434L396.674 352.283L398.521 350.434Z" fill="#003B30"/>
<path d="M421.746 350.434L419.899 348.586L418.051 350.434L419.899 352.283L421.746 350.434Z" fill="#003B30"/>
<path d="M3.69509 373.673L1.84754 371.824L0 373.673L1.84754 375.522L3.69509 373.673Z" fill="#003B30"/>
<path d="M26.9202 373.673L25.0727 371.824L23.2252 373.673L25.0727 375.522L26.9202 373.673Z" fill="#003B30"/>
<path d="M50.1452 373.673L48.2976 371.824L46.4501 373.673L48.2976 375.522L50.1452 373.673Z" fill="#003B30"/>
<path d="M73.3703 373.673L71.5228 371.824L69.6752 373.673L71.5228 375.522L73.3703 373.673Z" fill="#003B30"/>
<path d="M96.5955 373.673L94.748 371.824L92.9004 373.673L94.748 375.522L96.5955 373.673Z" fill="#003B30"/>
<path d="M119.82 373.673L117.973 371.824L116.125 373.673L117.973 375.522L119.82 373.673Z" fill="#003B30"/>
<path d="M143.046 373.673L141.198 371.824L139.35 373.673L141.198 375.522L143.046 373.673Z" fill="#003B30"/>
<path d="M166.27 373.673L164.423 371.824L162.575 373.673L164.423 375.522L166.27 373.673Z" fill="#003B30"/>
<path d="M189.496 373.673L187.648 371.824L185.801 373.673L187.648 375.522L189.496 373.673Z" fill="#003B30"/>
<path d="M212.721 373.673L210.873 371.824L209.026 373.673L210.873 375.522L212.721 373.673Z" fill="#003B30"/>
<path d="M235.946 373.673L234.098 371.824L232.251 373.673L234.098 375.522L235.946 373.673Z" fill="#003B30"/>
<path d="M259.171 373.673L257.323 371.824L255.476 373.673L257.323 375.522L259.171 373.673Z" fill="#003B30"/>
<path d="M282.396 373.673L280.549 371.824L278.701 373.673L280.549 375.522L282.396 373.673Z" fill="#003B30"/>
<path d="M305.621 373.673L303.773 371.824L301.926 373.673L303.773 375.522L305.621 373.673Z" fill="#003B30"/>
<path d="M328.846 373.673L326.999 371.824L325.151 373.673L326.999 375.522L328.846 373.673Z" fill="#003B30"/>
<path d="M352.071 373.673L350.224 371.824L348.376 373.673L350.224 375.522L352.071 373.673Z" fill="#003B30"/>
<path d="M375.296 373.673L373.449 371.824L371.601 373.673L373.449 375.522L375.296 373.673Z" fill="#003B30"/>
<path d="M398.521 373.673L396.674 371.824L394.826 373.673L396.674 375.522L398.521 373.673Z" fill="#003B30"/>
<path d="M421.746 373.673L419.899 371.824L418.051 373.673L419.899 375.522L421.746 373.673Z" fill="#003B30"/>
<path d="M3.69509 396.912L1.84754 395.063L0 396.912L1.84754 398.761L3.69509 396.912Z" fill="#003B30"/>
<path d="M26.9202 396.912L25.0727 395.063L23.2252 396.912L25.0727 398.761L26.9202 396.912Z" fill="#003B30"/>
<path d="M50.1452 396.912L48.2976 395.063L46.4501 396.912L48.2976 398.761L50.1452 396.912Z" fill="#003B30"/>
<path d="M73.3703 396.912L71.5228 395.063L69.6752 396.912L71.5228 398.761L73.3703 396.912Z" fill="#003B30"/>
<path d="M96.5955 396.912L94.748 395.063L92.9004 396.912L94.748 398.761L96.5955 396.912Z" fill="#003B30"/>
<path d="M119.82 396.912L117.973 395.063L116.125 396.912L117.973 398.761L119.82 396.912Z" fill="#003B30"/>
<path d="M143.046 396.912L141.198 395.063L139.35 396.912L141.198 398.761L143.046 396.912Z" fill="#003B30"/>
<path d="M166.27 396.912L164.423 395.063L162.575 396.912L164.423 398.761L166.27 396.912Z" fill="#003B30"/>
<path d="M189.496 396.912L187.648 395.063L185.801 396.912L187.648 398.761L189.496 396.912Z" fill="#003B30"/>
<path d="M212.721 396.912L210.873 395.063L209.026 396.912L210.873 398.761L212.721 396.912Z" fill="#003B30"/>
<path d="M235.946 396.912L234.098 395.063L232.251 396.912L234.098 398.761L235.946 396.912Z" fill="#003B30"/>
<path d="M259.171 396.912L257.323 395.063L255.476 396.912L257.323 398.761L259.171 396.912Z" fill="#003B30"/>
<path d="M282.396 396.912L280.549 395.063L278.701 396.912L280.549 398.761L282.396 396.912Z" fill="#003B30"/>
<path d="M305.621 396.912L303.773 395.063L301.926 396.912L303.773 398.761L305.621 396.912Z" fill="#003B30"/>
<path d="M328.846 396.912L326.999 395.063L325.151 396.912L326.999 398.761L328.846 396.912Z" fill="#003B30"/>
<path d="M352.071 396.912L350.224 395.063L348.376 396.912L350.224 398.761L352.071 396.912Z" fill="#003B30"/>
<path d="M375.296 396.912L373.449 395.063L371.601 396.912L373.449 398.761L375.296 396.912Z" fill="#003B30"/>
<path d="M398.521 396.912L396.674 395.063L394.826 396.912L396.674 398.761L398.521 396.912Z" fill="#003B30"/>
<path d="M421.746 396.912L419.899 395.063L418.051 396.912L419.899 398.761L421.746 396.912Z" fill="#003B30"/>
<path d="M3.69509 420.151L1.84754 418.303L0 420.151L1.84754 422L3.69509 420.151Z" fill="#003B30"/>
<path d="M26.9202 420.151L25.0727 418.303L23.2252 420.151L25.0727 422L26.9202 420.151Z" fill="#003B30"/>
<path d="M50.1452 420.151L48.2976 418.303L46.4501 420.151L48.2976 422L50.1452 420.151Z" fill="#003B30"/>
<path d="M73.3703 420.151L71.5228 418.303L69.6752 420.151L71.5228 422L73.3703 420.151Z" fill="#003B30"/>
<path d="M96.5955 420.151L94.748 418.303L92.9004 420.151L94.748 422L96.5955 420.151Z" fill="#003B30"/>
<path d="M119.82 420.151L117.973 418.303L116.125 420.151L117.973 422L119.82 420.151Z" fill="#003B30"/>
<path d="M143.046 420.151L141.198 418.303L139.35 420.151L141.198 422L143.046 420.151Z" fill="#003B30"/>
<path d="M166.27 420.151L164.423 418.303L162.575 420.151L164.423 422L166.27 420.151Z" fill="#003B30"/>
<path d="M189.496 420.151L187.648 418.303L185.801 420.151L187.648 422L189.496 420.151Z" fill="#003B30"/>
<path d="M212.721 420.151L210.873 418.303L209.026 420.151L210.873 422L212.721 420.151Z" fill="#003B30"/>
<path d="M235.946 420.151L234.098 418.303L232.251 420.151L234.098 422L235.946 420.151Z" fill="#003B30"/>
<path d="M259.171 420.151L257.323 418.303L255.476 420.151L257.323 422L259.171 420.151Z" fill="#003B30"/>
<path d="M282.396 420.151L280.549 418.303L278.701 420.151L280.549 422L282.396 420.151Z" fill="#003B30"/>
<path d="M305.621 420.151L303.773 418.303L301.926 420.151L303.773 422L305.621 420.151Z" fill="#003B30"/>
<path d="M328.846 420.151L326.999 418.303L325.151 420.151L326.999 422L328.846 420.151Z" fill="#003B30"/>
<path d="M352.071 420.151L350.224 418.303L348.376 420.151L350.224 422L352.071 420.151Z" fill="#003B30"/>
<path d="M375.296 420.151L373.449 418.303L371.601 420.151L373.449 422L375.296 420.151Z" fill="#003B30"/>
<path d="M398.521 420.151L396.674 418.303L394.826 420.151L396.674 422L398.521 420.151Z" fill="#003B30"/>
<path d="M421.746 420.151L419.899 418.303L418.051 420.151L419.899 422L421.746 420.151Z" fill="#003B30"/>
<path d="M235.949 1.84865L234.101 0L232.254 1.84865L234.101 3.6973L235.949 1.84865Z" fill="#003B30"/>
<path d="M259.174 1.84865L257.326 0L255.479 1.84865L257.326 3.6973L259.174 1.84865Z" fill="#003B30"/>
<path d="M282.399 1.84865L280.551 0L278.704 1.84865L280.551 3.6973L282.399 1.84865Z" fill="#003B30"/>
<path d="M305.624 1.84865L303.777 0L301.929 1.84865L303.777 3.6973L305.624 1.84865Z" fill="#003B30"/>
<path d="M328.849 1.84865L327.002 0L325.154 1.84865L327.002 3.6973L328.849 1.84865Z" fill="#003B30"/>
<path d="M352.074 1.84865L350.227 0L348.379 1.84865L350.227 3.6973L352.074 1.84865Z" fill="#003B30"/>
<path d="M375.299 1.84865L373.452 0L371.604 1.84865L373.452 3.6973L375.299 1.84865Z" fill="#003B30"/>
<path d="M398.524 1.84865L396.677 0L394.829 1.84865L396.677 3.6973L398.524 1.84865Z" fill="#003B30"/>
<path d="M421.749 1.84865L419.902 0L418.054 1.84865L419.902 3.6973L421.749 1.84865Z" fill="#003B30"/>
<path d="M444.975 1.84865L443.127 0L441.28 1.84865L443.127 3.6973L444.975 1.84865Z" fill="#003B30"/>
<path d="M468.199 1.84865L466.352 0L464.504 1.84865L466.352 3.6973L468.199 1.84865Z" fill="#003B30"/>
<path d="M491.425 1.84865L489.577 0L487.73 1.84865L489.577 3.6973L491.425 1.84865Z" fill="#003B30"/>
<path d="M514.65 1.84865L512.802 0L510.955 1.84865L512.802 3.6973L514.65 1.84865Z" fill="#003B30"/>
<path d="M537.875 1.84865L536.027 0L534.18 1.84865L536.027 3.6973L537.875 1.84865Z" fill="#003B30"/>
<path d="M561.1 1.84865L559.252 0L557.405 1.84865L559.252 3.6973L561.1 1.84865Z" fill="#003B30"/>
<path d="M584.325 1.84865L582.477 0L580.63 1.84865L582.477 3.6973L584.325 1.84865Z" fill="#003B30"/>
<path d="M607.55 1.84865L605.702 0L603.855 1.84865L605.702 3.6973L607.55 1.84865Z" fill="#003B30"/>
<path d="M630.775 1.84865L628.927 0L627.08 1.84865L628.927 3.6973L630.775 1.84865Z" fill="#003B30"/>
<path d="M654 1.84865L652.152 0L650.305 1.84865L652.152 3.6973L654 1.84865Z" fill="#003B30"/>
<path d="M235.949 25.0878L234.101 23.2391L232.254 25.0878L234.101 26.9364L235.949 25.0878Z" fill="#003B30"/>
<path d="M259.174 25.0878L257.326 23.2391L255.479 25.0878L257.326 26.9364L259.174 25.0878Z" fill="#003B30"/>
<path d="M282.399 25.0878L280.551 23.2391L278.704 25.0878L280.551 26.9364L282.399 25.0878Z" fill="#003B30"/>
<path d="M305.624 25.0878L303.777 23.2391L301.929 25.0878L303.777 26.9364L305.624 25.0878Z" fill="#003B30"/>
<path d="M328.849 25.0878L327.002 23.2391L325.154 25.0878L327.002 26.9364L328.849 25.0878Z" fill="#003B30"/>
<path d="M352.074 25.0878L350.227 23.2391L348.379 25.0878L350.227 26.9364L352.074 25.0878Z" fill="#003B30"/>
<path d="M375.299 25.0878L373.452 23.2391L371.604 25.0878L373.452 26.9364L375.299 25.0878Z" fill="#003B30"/>
<path d="M398.524 25.0878L396.677 23.2391L394.829 25.0878L396.677 26.9364L398.524 25.0878Z" fill="#003B30"/>
<path d="M421.749 25.0878L419.902 23.2391L418.054 25.0878L419.902 26.9364L421.749 25.0878Z" fill="#003B30"/>
<path d="M444.975 25.0878L443.127 23.2391L441.28 25.0878L443.127 26.9364L444.975 25.0878Z" fill="#003B30"/>
<path d="M468.199 25.0878L466.352 23.2391L464.504 25.0878L466.352 26.9364L468.199 25.0878Z" fill="#003B30"/>
<path d="M491.425 25.0878L489.577 23.2391L487.73 25.0878L489.577 26.9364L491.425 25.0878Z" fill="#003B30"/>
<path d="M514.65 25.0878L512.802 23.2391L510.955 25.0878L512.802 26.9364L514.65 25.0878Z" fill="#003B30"/>
<path d="M537.875 25.0878L536.027 23.2391L534.18 25.0878L536.027 26.9364L537.875 25.0878Z" fill="#003B30"/>
<path d="M561.1 25.0878L559.252 23.2391L557.405 25.0878L559.252 26.9364L561.1 25.0878Z" fill="#003B30"/>
<path d="M584.325 25.0878L582.477 23.2391L580.63 25.0878L582.477 26.9364L584.325 25.0878Z" fill="#003B30"/>
<path d="M607.55 25.0878L605.702 23.2391L603.855 25.0878L605.702 26.9364L607.55 25.0878Z" fill="#003B30"/>
<path d="M630.775 25.0878L628.927 23.2391L627.08 25.0878L628.927 26.9364L630.775 25.0878Z" fill="#003B30"/>
<path d="M654 25.0878L652.152 23.2391L650.305 25.0878L652.152 26.9364L654 25.0878Z" fill="#003B30"/>
<path d="M235.949 48.3269L234.101 46.4782L232.254 48.3269L234.101 50.1755L235.949 48.3269Z" fill="#003B30"/>
<path d="M259.174 48.3269L257.326 46.4782L255.479 48.3269L257.326 50.1755L259.174 48.3269Z" fill="#003B30"/>
<path d="M282.399 48.3269L280.551 46.4782L278.704 48.3269L280.551 50.1755L282.399 48.3269Z" fill="#003B30"/>
<path d="M305.624 48.3269L303.777 46.4782L301.929 48.3269L303.777 50.1755L305.624 48.3269Z" fill="#003B30"/>
<path d="M328.849 48.3269L327.002 46.4782L325.154 48.3269L327.002 50.1755L328.849 48.3269Z" fill="#003B30"/>
<path d="M352.074 48.3269L350.227 46.4782L348.379 48.3269L350.227 50.1755L352.074 48.3269Z" fill="#003B30"/>
<path d="M375.299 48.3269L373.452 46.4782L371.604 48.3269L373.452 50.1755L375.299 48.3269Z" fill="#003B30"/>
<path d="M398.524 48.3269L396.677 46.4782L394.829 48.3269L396.677 50.1755L398.524 48.3269Z" fill="#003B30"/>
<path d="M421.749 48.3269L419.902 46.4782L418.054 48.3269L419.902 50.1755L421.749 48.3269Z" fill="#003B30"/>
<path d="M444.975 48.3269L443.127 46.4782L441.28 48.3269L443.127 50.1755L444.975 48.3269Z" fill="#003B30"/>
<path d="M468.199 48.3269L466.352 46.4782L464.504 48.3269L466.352 50.1755L468.199 48.3269Z" fill="#003B30"/>
<path d="M491.425 48.3269L489.577 46.4782L487.73 48.3269L489.577 50.1755L491.425 48.3269Z" fill="#003B30"/>
<path d="M514.65 48.3269L512.802 46.4782L510.955 48.3269L512.802 50.1755L514.65 48.3269Z" fill="#003B30"/>
<path d="M537.875 48.3269L536.027 46.4782L534.18 48.3269L536.027 50.1755L537.875 48.3269Z" fill="#003B30"/>
<path d="M561.1 48.3269L559.252 46.4782L557.405 48.3269L559.252 50.1755L561.1 48.3269Z" fill="#003B30"/>
<path d="M584.325 48.3269L582.477 46.4782L580.63 48.3269L582.477 50.1755L584.325 48.3269Z" fill="#003B30"/>
<path d="M607.55 48.3269L605.702 46.4782L603.855 48.3269L605.702 50.1755L607.55 48.3269Z" fill="#003B30"/>
<path d="M630.775 48.3269L628.927 46.4782L627.08 48.3269L628.927 50.1755L630.775 48.3269Z" fill="#003B30"/>
<path d="M654 48.3269L652.152 46.4782L650.305 48.3269L652.152 50.1755L654 48.3269Z" fill="#003B30"/>
<path d="M235.949 71.566L234.101 69.7173L232.254 71.566L234.101 73.4146L235.949 71.566Z" fill="#003B30"/>
<path d="M259.174 71.566L257.326 69.7173L255.479 71.566L257.326 73.4146L259.174 71.566Z" fill="#003B30"/>
<path d="M282.399 71.566L280.551 69.7173L278.704 71.566L280.551 73.4146L282.399 71.566Z" fill="#003B30"/>
<path d="M305.624 71.566L303.777 69.7173L301.929 71.566L303.777 73.4146L305.624 71.566Z" fill="#003B30"/>
<path d="M328.849 71.566L327.002 69.7173L325.154 71.566L327.002 73.4146L328.849 71.566Z" fill="#003B30"/>
<path d="M352.074 71.566L350.227 69.7173L348.379 71.566L350.227 73.4146L352.074 71.566Z" fill="#003B30"/>
<path d="M375.299 71.566L373.452 69.7173L371.604 71.566L373.452 73.4146L375.299 71.566Z" fill="#003B30"/>
<path d="M398.524 71.566L396.677 69.7173L394.829 71.566L396.677 73.4146L398.524 71.566Z" fill="#003B30"/>
<path d="M421.749 71.566L419.902 69.7173L418.054 71.566L419.902 73.4146L421.749 71.566Z" fill="#003B30"/>
<path d="M444.975 71.566L443.127 69.7173L441.28 71.566L443.127 73.4146L444.975 71.566Z" fill="#003B30"/>
<path d="M468.199 71.566L466.352 69.7173L464.504 71.566L466.352 73.4146L468.199 71.566Z" fill="#003B30"/>
<path d="M491.425 71.566L489.577 69.7173L487.73 71.566L489.577 73.4146L491.425 71.566Z" fill="#003B30"/>
<path d="M514.65 71.566L512.802 69.7173L510.955 71.566L512.802 73.4146L514.65 71.566Z" fill="#003B30"/>
<path d="M537.875 71.566L536.027 69.7173L534.18 71.566L536.027 73.4146L537.875 71.566Z" fill="#003B30"/>
<path d="M561.1 71.566L559.252 69.7173L557.405 71.566L559.252 73.4146L561.1 71.566Z" fill="#003B30"/>
<path d="M584.325 71.566L582.477 69.7173L580.63 71.566L582.477 73.4146L584.325 71.566Z" fill="#003B30"/>
<path d="M607.55 71.566L605.702 69.7173L603.855 71.566L605.702 73.4146L607.55 71.566Z" fill="#003B30"/>
<path d="M630.775 71.566L628.927 69.7173L627.08 71.566L628.927 73.4146L630.775 71.566Z" fill="#003B30"/>
<path d="M654 71.566L652.152 69.7173L650.305 71.566L652.152 73.4146L654 71.566Z" fill="#003B30"/>
<path d="M235.949 94.8048L234.101 92.9562L232.254 94.8048L234.101 96.6535L235.949 94.8048Z" fill="#003B30"/>
<path d="M259.174 94.8048L257.326 92.9562L255.479 94.8048L257.326 96.6535L259.174 94.8048Z" fill="#003B30"/>
<path d="M282.399 94.8048L280.551 92.9562L278.704 94.8048L280.551 96.6535L282.399 94.8048Z" fill="#003B30"/>
<path d="M305.624 94.8048L303.777 92.9562L301.929 94.8048L303.777 96.6535L305.624 94.8048Z" fill="#003B30"/>
<path d="M328.849 94.8048L327.002 92.9562L325.154 94.8048L327.002 96.6535L328.849 94.8048Z" fill="#003B30"/>
<path d="M352.074 94.8048L350.227 92.9562L348.379 94.8048L350.227 96.6535L352.074 94.8048Z" fill="#003B30"/>
<path d="M375.299 94.8048L373.452 92.9562L371.604 94.8048L373.452 96.6535L375.299 94.8048Z" fill="#003B30"/>
<path d="M398.524 94.8048L396.677 92.9562L394.829 94.8048L396.677 96.6535L398.524 94.8048Z" fill="#003B30"/>
<path d="M421.749 94.8048L419.902 92.9562L418.054 94.8048L419.902 96.6535L421.749 94.8048Z" fill="#003B30"/>
<path d="M444.975 94.8048L443.127 92.9562L441.28 94.8048L443.127 96.6535L444.975 94.8048Z" fill="#003B30"/>
<path d="M468.199 94.8048L466.352 92.9562L464.504 94.8048L466.352 96.6535L468.199 94.8048Z" fill="#003B30"/>
<path d="M491.425 94.8048L489.577 92.9562L487.73 94.8048L489.577 96.6535L491.425 94.8048Z" fill="#003B30"/>
<path d="M514.65 94.8048L512.802 92.9562L510.955 94.8048L512.802 96.6535L514.65 94.8048Z" fill="#003B30"/>
<path d="M537.875 94.8048L536.027 92.9562L534.18 94.8048L536.027 96.6535L537.875 94.8048Z" fill="#003B30"/>
<path d="M561.1 94.8048L559.252 92.9562L557.405 94.8048L559.252 96.6535L561.1 94.8048Z" fill="#003B30"/>
<path d="M584.325 94.8048L582.477 92.9562L580.63 94.8048L582.477 96.6535L584.325 94.8048Z" fill="#003B30"/>
<path d="M607.55 94.8048L605.702 92.9562L603.855 94.8048L605.702 96.6535L607.55 94.8048Z" fill="#003B30"/>
<path d="M630.775 94.8048L628.927 92.9562L627.08 94.8048L628.927 96.6535L630.775 94.8048Z" fill="#003B30"/>
<path d="M654 94.8048L652.152 92.9562L650.305 94.8048L652.152 96.6535L654 94.8048Z" fill="#003B30"/>
<path d="M235.949 118.044L234.101 116.195L232.254 118.044L234.101 119.893L235.949 118.044Z" fill="#003B30"/>
<path d="M259.174 118.044L257.326 116.195L255.479 118.044L257.326 119.893L259.174 118.044Z" fill="#003B30"/>
<path d="M282.399 118.044L280.551 116.195L278.704 118.044L280.551 119.893L282.399 118.044Z" fill="#003B30"/>
<path d="M305.624 118.044L303.777 116.195L301.929 118.044L303.777 119.893L305.624 118.044Z" fill="#003B30"/>
<path d="M328.849 118.044L327.002 116.195L325.154 118.044L327.002 119.893L328.849 118.044Z" fill="#003B30"/>
<path d="M352.074 118.044L350.227 116.195L348.379 118.044L350.227 119.893L352.074 118.044Z" fill="#003B30"/>
<path d="M375.299 118.044L373.452 116.195L371.604 118.044L373.452 119.893L375.299 118.044Z" fill="#003B30"/>
<path d="M398.524 118.044L396.677 116.195L394.829 118.044L396.677 119.893L398.524 118.044Z" fill="#003B30"/>
<path d="M421.749 118.044L419.902 116.195L418.054 118.044L419.902 119.893L421.749 118.044Z" fill="#003B30"/>
<path d="M444.975 118.044L443.127 116.195L441.28 118.044L443.127 119.893L444.975 118.044Z" fill="#003B30"/>
<path d="M468.199 118.044L466.352 116.195L464.504 118.044L466.352 119.893L468.199 118.044Z" fill="#003B30"/>
<path d="M491.425 118.044L489.577 116.195L487.73 118.044L489.577 119.893L491.425 118.044Z" fill="#003B30"/>
<path d="M514.65 118.044L512.802 116.195L510.955 118.044L512.802 119.893L514.65 118.044Z" fill="#003B30"/>
<path d="M537.875 118.044L536.027 116.195L534.18 118.044L536.027 119.893L537.875 118.044Z" fill="#003B30"/>
<path d="M561.1 118.044L559.252 116.195L557.405 118.044L559.252 119.893L561.1 118.044Z" fill="#003B30"/>
<path d="M584.325 118.044L582.477 116.195L580.63 118.044L582.477 119.893L584.325 118.044Z" fill="#003B30"/>
<path d="M607.55 118.044L605.702 116.195L603.855 118.044L605.702 119.893L607.55 118.044Z" fill="#003B30"/>
<path d="M630.775 118.044L628.927 116.195L627.08 118.044L628.927 119.893L630.775 118.044Z" fill="#003B30"/>
<path d="M654 118.044L652.152 116.195L650.305 118.044L652.152 119.893L654 118.044Z" fill="#003B30"/>
<path d="M235.949 141.283L234.101 139.434L232.254 141.283L234.101 143.132L235.949 141.283Z" fill="#003B30"/>
<path d="M259.174 141.283L257.326 139.434L255.479 141.283L257.326 143.132L259.174 141.283Z" fill="#003B30"/>
<path d="M282.399 141.283L280.551 139.434L278.704 141.283L280.551 143.132L282.399 141.283Z" fill="#003B30"/>
<path d="M305.624 141.283L303.777 139.434L301.929 141.283L303.777 143.132L305.624 141.283Z" fill="#003B30"/>
<path d="M328.849 141.283L327.002 139.434L325.154 141.283L327.002 143.132L328.849 141.283Z" fill="#003B30"/>
<path d="M352.074 141.283L350.227 139.434L348.379 141.283L350.227 143.132L352.074 141.283Z" fill="#003B30"/>
<path d="M375.299 141.283L373.452 139.434L371.604 141.283L373.452 143.132L375.299 141.283Z" fill="#003B30"/>
<path d="M398.524 141.283L396.677 139.434L394.829 141.283L396.677 143.132L398.524 141.283Z" fill="#003B30"/>
<path d="M421.749 141.283L419.902 139.434L418.054 141.283L419.902 143.132L421.749 141.283Z" fill="#003B30"/>
<path d="M444.975 141.283L443.127 139.434L441.28 141.283L443.127 143.132L444.975 141.283Z" fill="#003B30"/>
<path d="M468.199 141.283L466.352 139.434L464.504 141.283L466.352 143.132L468.199 141.283Z" fill="#003B30"/>
<path d="M491.425 141.283L489.577 139.434L487.73 141.283L489.577 143.132L491.425 141.283Z" fill="#003B30"/>
<path d="M514.65 141.283L512.802 139.434L510.955 141.283L512.802 143.132L514.65 141.283Z" fill="#003B30"/>
<path d="M537.875 141.283L536.027 139.434L534.18 141.283L536.027 143.132L537.875 141.283Z" fill="#003B30"/>
<path d="M561.1 141.283L559.252 139.434L557.405 141.283L559.252 143.132L561.1 141.283Z" fill="#003B30"/>
<path d="M584.325 141.283L582.477 139.434L580.63 141.283L582.477 143.132L584.325 141.283Z" fill="#003B30"/>
<path d="M607.55 141.283L605.702 139.434L603.855 141.283L605.702 143.132L607.55 141.283Z" fill="#003B30"/>
<path d="M630.775 141.283L628.927 139.434L627.08 141.283L628.927 143.132L630.775 141.283Z" fill="#003B30"/>
<path d="M654 141.283L652.152 139.434L650.305 141.283L652.152 143.132L654 141.283Z" fill="#003B30"/>
<path d="M235.949 164.522L234.101 162.673L232.254 164.522L234.101 166.37L235.949 164.522Z" fill="#003B30"/>
<path d="M259.174 164.522L257.326 162.673L255.479 164.522L257.326 166.37L259.174 164.522Z" fill="#003B30"/>
<path d="M282.399 164.522L280.551 162.673L278.704 164.522L280.551 166.37L282.399 164.522Z" fill="#003B30"/>
<path d="M305.624 164.522L303.777 162.673L301.929 164.522L303.777 166.37L305.624 164.522Z" fill="#003B30"/>
<path d="M328.849 164.522L327.002 162.673L325.154 164.522L327.002 166.37L328.849 164.522Z" fill="#003B30"/>
<path d="M352.074 164.522L350.227 162.673L348.379 164.522L350.227 166.37L352.074 164.522Z" fill="#003B30"/>
<path d="M375.299 164.522L373.452 162.673L371.604 164.522L373.452 166.37L375.299 164.522Z" fill="#003B30"/>
<path d="M398.524 164.522L396.677 162.673L394.829 164.522L396.677 166.37L398.524 164.522Z" fill="#003B30"/>
<path d="M421.749 164.522L419.902 162.673L418.054 164.522L419.902 166.37L421.749 164.522Z" fill="#003B30"/>
<path d="M444.975 164.522L443.127 162.673L441.28 164.522L443.127 166.37L444.975 164.522Z" fill="#003B30"/>
<path d="M468.199 164.522L466.352 162.673L464.504 164.522L466.352 166.37L468.199 164.522Z" fill="#003B30"/>
<path d="M491.425 164.522L489.577 162.673L487.73 164.522L489.577 166.37L491.425 164.522Z" fill="#003B30"/>
<path d="M514.65 164.522L512.802 162.673L510.955 164.522L512.802 166.37L514.65 164.522Z" fill="#003B30"/>
<path d="M537.875 164.522L536.027 162.673L534.18 164.522L536.027 166.37L537.875 164.522Z" fill="#003B30"/>
<path d="M561.1 164.522L559.252 162.673L557.405 164.522L559.252 166.37L561.1 164.522Z" fill="#003B30"/>
<path d="M584.325 164.522L582.477 162.673L580.63 164.522L582.477 166.37L584.325 164.522Z" fill="#003B30"/>
<path d="M607.55 164.522L605.702 162.673L603.855 164.522L605.702 166.37L607.55 164.522Z" fill="#003B30"/>
<path d="M630.775 164.522L628.927 162.673L627.08 164.522L628.927 166.37L630.775 164.522Z" fill="#003B30"/>
<path d="M654 164.522L652.152 162.673L650.305 164.522L652.152 166.37L654 164.522Z" fill="#003B30"/>
<path d="M235.949 187.761L234.101 185.912L232.254 187.761L234.101 189.61L235.949 187.761Z" fill="#003B30"/>
<path d="M259.174 187.761L257.326 185.912L255.479 187.761L257.326 189.61L259.174 187.761Z" fill="#003B30"/>
<path d="M282.399 187.761L280.551 185.912L278.704 187.761L280.551 189.61L282.399 187.761Z" fill="#003B30"/>
<path d="M305.624 187.761L303.777 185.912L301.929 187.761L303.777 189.61L305.624 187.761Z" fill="#003B30"/>
<path d="M328.849 187.761L327.002 185.912L325.154 187.761L327.002 189.61L328.849 187.761Z" fill="#003B30"/>
<path d="M352.074 187.761L350.227 185.912L348.379 187.761L350.227 189.61L352.074 187.761Z" fill="#003B30"/>
<path d="M375.299 187.761L373.452 185.912L371.604 187.761L373.452 189.61L375.299 187.761Z" fill="#003B30"/>
<path d="M398.524 187.761L396.677 185.912L394.829 187.761L396.677 189.61L398.524 187.761Z" fill="#003B30"/>
<path d="M421.749 187.761L419.902 185.912L418.054 187.761L419.902 189.61L421.749 187.761Z" fill="#003B30"/>
<path d="M444.975 187.761L443.127 185.912L441.28 187.761L443.127 189.61L444.975 187.761Z" fill="#003B30"/>
<path d="M468.199 187.761L466.352 185.912L464.504 187.761L466.352 189.61L468.199 187.761Z" fill="#003B30"/>
<path d="M491.425 187.761L489.577 185.912L487.73 187.761L489.577 189.61L491.425 187.761Z" fill="#003B30"/>
<path d="M514.65 187.761L512.802 185.912L510.955 187.761L512.802 189.61L514.65 187.761Z" fill="#003B30"/>
<path d="M537.875 187.761L536.027 185.912L534.18 187.761L536.027 189.61L537.875 187.761Z" fill="#003B30"/>
<path d="M561.1 187.761L559.252 185.912L557.405 187.761L559.252 189.61L561.1 187.761Z" fill="#003B30"/>
<path d="M584.325 187.761L582.477 185.912L580.63 187.761L582.477 189.61L584.325 187.761Z" fill="#003B30"/>
<path d="M607.55 187.761L605.702 185.912L603.855 187.761L605.702 189.61L607.55 187.761Z" fill="#003B30"/>
<path d="M630.775 187.761L628.927 185.912L627.08 187.761L628.927 189.61L630.775 187.761Z" fill="#003B30"/>
<path d="M654 187.761L652.152 185.912L650.305 187.761L652.152 189.61L654 187.761Z" fill="#003B30"/>
<path d="M235.949 211L234.101 209.151L232.254 211L234.101 212.849L235.949 211Z" fill="#003B30"/>
<path d="M259.174 211L257.326 209.151L255.479 211L257.326 212.849L259.174 211Z" fill="#003B30"/>
<path d="M282.399 211L280.551 209.151L278.704 211L280.551 212.849L282.399 211Z" fill="#003B30"/>
<path d="M305.624 211L303.777 209.151L301.929 211L303.777 212.849L305.624 211Z" fill="#003B30"/>
<path d="M328.849 211L327.002 209.151L325.154 211L327.002 212.849L328.849 211Z" fill="#003B30"/>
<path d="M352.074 211L350.227 209.151L348.379 211L350.227 212.849L352.074 211Z" fill="#003B30"/>
<path d="M375.299 211L373.452 209.151L371.604 211L373.452 212.849L375.299 211Z" fill="#003B30"/>
<path d="M398.524 211L396.677 209.151L394.829 211L396.677 212.849L398.524 211Z" fill="#003B30"/>
<path d="M421.749 211L419.902 209.151L418.054 211L419.902 212.849L421.749 211Z" fill="#003B30"/>
<path d="M444.975 211L443.127 209.151L441.28 211L443.127 212.849L444.975 211Z" fill="#003B30"/>
<path d="M468.199 211L466.352 209.151L464.504 211L466.352 212.849L468.199 211Z" fill="#003B30"/>
<path d="M491.425 211L489.577 209.151L487.73 211L489.577 212.849L491.425 211Z" fill="#003B30"/>
<path d="M514.65 211L512.802 209.151L510.955 211L512.802 212.849L514.65 211Z" fill="#003B30"/>
<path d="M537.875 211L536.027 209.151L534.18 211L536.027 212.849L537.875 211Z" fill="#003B30"/>
<path d="M561.1 211L559.252 209.151L557.405 211L559.252 212.849L561.1 211Z" fill="#003B30"/>
<path d="M584.325 211L582.477 209.151L580.63 211L582.477 212.849L584.325 211Z" fill="#003B30"/>
<path d="M607.55 211L605.702 209.151L603.855 211L605.702 212.849L607.55 211Z" fill="#003B30"/>
<path d="M630.775 211L628.927 209.151L627.08 211L628.927 212.849L630.775 211Z" fill="#003B30"/>
<path d="M654 211L652.152 209.151L650.305 211L652.152 212.849L654 211Z" fill="#003B30"/>
<path d="M235.949 234.239L234.101 232.39L232.254 234.239L234.101 236.088L235.949 234.239Z" fill="#003B30"/>
<path d="M259.174 234.239L257.326 232.39L255.479 234.239L257.326 236.088L259.174 234.239Z" fill="#003B30"/>
<path d="M282.399 234.239L280.551 232.39L278.704 234.239L280.551 236.088L282.399 234.239Z" fill="#003B30"/>
<path d="M305.624 234.239L303.777 232.39L301.929 234.239L303.777 236.088L305.624 234.239Z" fill="#003B30"/>
<path d="M328.849 234.239L327.002 232.39L325.154 234.239L327.002 236.088L328.849 234.239Z" fill="#003B30"/>
<path d="M352.074 234.239L350.227 232.39L348.379 234.239L350.227 236.088L352.074 234.239Z" fill="#003B30"/>
<path d="M375.299 234.239L373.452 232.39L371.604 234.239L373.452 236.088L375.299 234.239Z" fill="#003B30"/>
<path d="M398.524 234.239L396.677 232.39L394.829 234.239L396.677 236.088L398.524 234.239Z" fill="#003B30"/>
<path d="M421.749 234.239L419.902 232.39L418.054 234.239L419.902 236.088L421.749 234.239Z" fill="#003B30"/>
<path d="M444.975 234.239L443.127 232.39L441.28 234.239L443.127 236.088L444.975 234.239Z" fill="#003B30"/>
<path d="M468.199 234.239L466.352 232.39L464.504 234.239L466.352 236.088L468.199 234.239Z" fill="#003B30"/>
<path d="M491.425 234.239L489.577 232.39L487.73 234.239L489.577 236.088L491.425 234.239Z" fill="#003B30"/>
<path d="M514.65 234.239L512.802 232.39L510.955 234.239L512.802 236.088L514.65 234.239Z" fill="#003B30"/>
<path d="M537.875 234.239L536.027 232.39L534.18 234.239L536.027 236.088L537.875 234.239Z" fill="#003B30"/>
<path d="M561.1 234.239L559.252 232.39L557.405 234.239L559.252 236.088L561.1 234.239Z" fill="#003B30"/>
<path d="M584.325 234.239L582.477 232.39L580.63 234.239L582.477 236.088L584.325 234.239Z" fill="#003B30"/>
<path d="M607.55 234.239L605.702 232.39L603.855 234.239L605.702 236.088L607.55 234.239Z" fill="#003B30"/>
<path d="M630.775 234.239L628.927 232.39L627.08 234.239L628.927 236.088L630.775 234.239Z" fill="#003B30"/>
<path d="M654 234.239L652.152 232.39L650.305 234.239L652.152 236.088L654 234.239Z" fill="#003B30"/>
<path d="M235.949 257.478L234.101 255.629L232.254 257.478L234.101 259.326L235.949 257.478Z" fill="#003B30"/>
<path d="M259.174 257.478L257.326 255.629L255.479 257.478L257.326 259.326L259.174 257.478Z" fill="#003B30"/>
<path d="M282.399 257.478L280.551 255.629L278.704 257.478L280.551 259.326L282.399 257.478Z" fill="#003B30"/>
<path d="M305.624 257.478L303.777 255.629L301.929 257.478L303.777 259.326L305.624 257.478Z" fill="#003B30"/>
<path d="M328.849 257.478L327.002 255.629L325.154 257.478L327.002 259.326L328.849 257.478Z" fill="#003B30"/>
<path d="M352.074 257.478L350.227 255.629L348.379 257.478L350.227 259.326L352.074 257.478Z" fill="#003B30"/>
<path d="M375.299 257.478L373.452 255.629L371.604 257.478L373.452 259.326L375.299 257.478Z" fill="#003B30"/>
<path d="M398.524 257.478L396.677 255.629L394.829 257.478L396.677 259.326L398.524 257.478Z" fill="#003B30"/>
<path d="M421.749 257.478L419.902 255.629L418.054 257.478L419.902 259.326L421.749 257.478Z" fill="#003B30"/>
<path d="M444.975 257.478L443.127 255.629L441.28 257.478L443.127 259.326L444.975 257.478Z" fill="#003B30"/>
<path d="M468.199 257.478L466.352 255.629L464.504 257.478L466.352 259.326L468.199 257.478Z" fill="#003B30"/>
<path d="M491.425 257.478L489.577 255.629L487.73 257.478L489.577 259.326L491.425 257.478Z" fill="#003B30"/>
<path d="M514.65 257.478L512.802 255.629L510.955 257.478L512.802 259.326L514.65 257.478Z" fill="#003B30"/>
<path d="M537.875 257.478L536.027 255.629L534.18 257.478L536.027 259.326L537.875 257.478Z" fill="#003B30"/>
<path d="M561.1 257.478L559.252 255.629L557.405 257.478L559.252 259.326L561.1 257.478Z" fill="#003B30"/>
<path d="M584.325 257.478L582.477 255.629L580.63 257.478L582.477 259.326L584.325 257.478Z" fill="#003B30"/>
<path d="M607.55 257.478L605.702 255.629L603.855 257.478L605.702 259.326L607.55 257.478Z" fill="#003B30"/>
<path d="M630.775 257.478L628.927 255.629L627.08 257.478L628.927 259.326L630.775 257.478Z" fill="#003B30"/>
<path d="M654 257.478L652.152 255.629L650.305 257.478L652.152 259.326L654 257.478Z" fill="#003B30"/>
<path d="M235.949 280.717L234.101 278.869L232.254 280.717L234.101 282.566L235.949 280.717Z" fill="#003B30"/>
<path d="M259.174 280.717L257.326 278.869L255.479 280.717L257.326 282.566L259.174 280.717Z" fill="#003B30"/>
<path d="M282.399 280.717L280.551 278.869L278.704 280.717L280.551 282.566L282.399 280.717Z" fill="#003B30"/>
<path d="M305.624 280.717L303.777 278.869L301.929 280.717L303.777 282.566L305.624 280.717Z" fill="#003B30"/>
<path d="M328.849 280.717L327.002 278.869L325.154 280.717L327.002 282.566L328.849 280.717Z" fill="#003B30"/>
<path d="M352.074 280.717L350.227 278.869L348.379 280.717L350.227 282.566L352.074 280.717Z" fill="#003B30"/>
<path d="M375.299 280.717L373.452 278.869L371.604 280.717L373.452 282.566L375.299 280.717Z" fill="#003B30"/>
<path d="M398.524 280.717L396.677 278.869L394.829 280.717L396.677 282.566L398.524 280.717Z" fill="#003B30"/>
<path d="M421.749 280.717L419.902 278.869L418.054 280.717L419.902 282.566L421.749 280.717Z" fill="#003B30"/>
<path d="M444.975 280.717L443.127 278.869L441.28 280.717L443.127 282.566L444.975 280.717Z" fill="#003B30"/>
<path d="M468.199 280.717L466.352 278.869L464.504 280.717L466.352 282.566L468.199 280.717Z" fill="#003B30"/>
<path d="M491.425 280.717L489.577 278.869L487.73 280.717L489.577 282.566L491.425 280.717Z" fill="#003B30"/>
<path d="M514.65 280.717L512.802 278.869L510.955 280.717L512.802 282.566L514.65 280.717Z" fill="#003B30"/>
<path d="M537.875 280.717L536.027 278.869L534.18 280.717L536.027 282.566L537.875 280.717Z" fill="#003B30"/>
<path d="M561.1 280.717L559.252 278.869L557.405 280.717L559.252 282.566L561.1 280.717Z" fill="#003B30"/>
<path d="M584.325 280.717L582.477 278.869L580.63 280.717L582.477 282.566L584.325 280.717Z" fill="#003B30"/>
<path d="M607.55 280.717L605.702 278.869L603.855 280.717L605.702 282.566L607.55 280.717Z" fill="#003B30"/>
<path d="M630.775 280.717L628.927 278.869L627.08 280.717L628.927 282.566L630.775 280.717Z" fill="#003B30"/>
<path d="M654 280.717L652.152 278.869L650.305 280.717L652.152 282.566L654 280.717Z" fill="#003B30"/>
<path d="M235.949 303.956L234.101 302.107L232.254 303.956L234.101 305.805L235.949 303.956Z" fill="#003B30"/>
<path d="M259.174 303.956L257.326 302.107L255.479 303.956L257.326 305.805L259.174 303.956Z" fill="#003B30"/>
<path d="M282.399 303.956L280.551 302.107L278.704 303.956L280.551 305.805L282.399 303.956Z" fill="#003B30"/>
<path d="M305.624 303.956L303.777 302.107L301.929 303.956L303.777 305.805L305.624 303.956Z" fill="#003B30"/>
<path d="M328.849 303.956L327.002 302.107L325.154 303.956L327.002 305.805L328.849 303.956Z" fill="#003B30"/>
<path d="M352.074 303.956L350.227 302.107L348.379 303.956L350.227 305.805L352.074 303.956Z" fill="#003B30"/>
<path d="M375.299 303.956L373.452 302.107L371.604 303.956L373.452 305.805L375.299 303.956Z" fill="#003B30"/>
<path d="M398.524 303.956L396.677 302.107L394.829 303.956L396.677 305.805L398.524 303.956Z" fill="#003B30"/>
<path d="M421.749 303.956L419.902 302.107L418.054 303.956L419.902 305.805L421.749 303.956Z" fill="#003B30"/>
<path d="M444.975 303.956L443.127 302.107L441.28 303.956L443.127 305.805L444.975 303.956Z" fill="#003B30"/>
<path d="M468.199 303.956L466.352 302.107L464.504 303.956L466.352 305.805L468.199 303.956Z" fill="#003B30"/>
<path d="M491.425 303.956L489.577 302.107L487.73 303.956L489.577 305.805L491.425 303.956Z" fill="#003B30"/>
<path d="M514.65 303.956L512.802 302.107L510.955 303.956L512.802 305.805L514.65 303.956Z" fill="#003B30"/>
<path d="M537.875 303.956L536.027 302.107L534.18 303.956L536.027 305.805L537.875 303.956Z" fill="#003B30"/>
<path d="M561.1 303.956L559.252 302.107L557.405 303.956L559.252 305.805L561.1 303.956Z" fill="#003B30"/>
<path d="M584.325 303.956L582.477 302.107L580.63 303.956L582.477 305.805L584.325 303.956Z" fill="#003B30"/>
<path d="M607.55 303.956L605.702 302.107L603.855 303.956L605.702 305.805L607.55 303.956Z" fill="#003B30"/>
<path d="M630.775 303.956L628.927 302.107L627.08 303.956L628.927 305.805L630.775 303.956Z" fill="#003B30"/>
<path d="M654 303.956L652.152 302.107L650.305 303.956L652.152 305.805L654 303.956Z" fill="#003B30"/>
<path d="M235.949 327.195L234.101 325.346L232.254 327.195L234.101 329.044L235.949 327.195Z" fill="#003B30"/>
<path d="M259.174 327.195L257.326 325.346L255.479 327.195L257.326 329.044L259.174 327.195Z" fill="#003B30"/>
<path d="M282.399 327.195L280.551 325.346L278.704 327.195L280.551 329.044L282.399 327.195Z" fill="#003B30"/>
<path d="M305.624 327.195L303.777 325.346L301.929 327.195L303.777 329.044L305.624 327.195Z" fill="#003B30"/>
<path d="M328.849 327.195L327.002 325.346L325.154 327.195L327.002 329.044L328.849 327.195Z" fill="#003B30"/>
<path d="M352.074 327.195L350.227 325.346L348.379 327.195L350.227 329.044L352.074 327.195Z" fill="#003B30"/>
<path d="M375.299 327.195L373.452 325.346L371.604 327.195L373.452 329.044L375.299 327.195Z" fill="#003B30"/>
<path d="M398.524 327.195L396.677 325.346L394.829 327.195L396.677 329.044L398.524 327.195Z" fill="#003B30"/>
<path d="M421.749 327.195L419.902 325.346L418.054 327.195L419.902 329.044L421.749 327.195Z" fill="#003B30"/>
<path d="M444.975 327.195L443.127 325.346L441.28 327.195L443.127 329.044L444.975 327.195Z" fill="#003B30"/>
<path d="M468.199 327.195L466.352 325.346L464.504 327.195L466.352 329.044L468.199 327.195Z" fill="#003B30"/>
<path d="M491.425 327.195L489.577 325.346L487.73 327.195L489.577 329.044L491.425 327.195Z" fill="#003B30"/>
<path d="M514.65 327.195L512.802 325.346L510.955 327.195L512.802 329.044L514.65 327.195Z" fill="#003B30"/>
<path d="M537.875 327.195L536.027 325.346L534.18 327.195L536.027 329.044L537.875 327.195Z" fill="#003B30"/>
<path d="M561.1 327.195L559.252 325.346L557.405 327.195L559.252 329.044L561.1 327.195Z" fill="#003B30"/>
<path d="M584.325 327.195L582.477 325.346L580.63 327.195L582.477 329.044L584.325 327.195Z" fill="#003B30"/>
<path d="M607.55 327.195L605.702 325.346L603.855 327.195L605.702 329.044L607.55 327.195Z" fill="#003B30"/>
<path d="M630.775 327.195L628.927 325.346L627.08 327.195L628.927 329.044L630.775 327.195Z" fill="#003B30"/>
<path d="M654 327.195L652.152 325.346L650.305 327.195L652.152 329.044L654 327.195Z" fill="#003B30"/>
<path d="M235.949 350.434L234.101 348.586L232.254 350.434L234.101 352.283L235.949 350.434Z" fill="#003B30"/>
<path d="M259.174 350.434L257.326 348.586L255.479 350.434L257.326 352.283L259.174 350.434Z" fill="#003B30"/>
<path d="M282.399 350.434L280.551 348.586L278.704 350.434L280.551 352.283L282.399 350.434Z" fill="#003B30"/>
<path d="M305.624 350.434L303.777 348.586L301.929 350.434L303.777 352.283L305.624 350.434Z" fill="#003B30"/>
<path d="M328.849 350.434L327.002 348.586L325.154 350.434L327.002 352.283L328.849 350.434Z" fill="#003B30"/>
<path d="M352.074 350.434L350.227 348.586L348.379 350.434L350.227 352.283L352.074 350.434Z" fill="#003B30"/>
<path d="M375.299 350.434L373.452 348.586L371.604 350.434L373.452 352.283L375.299 350.434Z" fill="#003B30"/>
<path d="M398.524 350.434L396.677 348.586L394.829 350.434L396.677 352.283L398.524 350.434Z" fill="#003B30"/>
<path d="M421.749 350.434L419.902 348.586L418.054 350.434L419.902 352.283L421.749 350.434Z" fill="#003B30"/>
<path d="M444.975 350.434L443.127 348.586L441.28 350.434L443.127 352.283L444.975 350.434Z" fill="#003B30"/>
<path d="M468.199 350.434L466.352 348.586L464.504 350.434L466.352 352.283L468.199 350.434Z" fill="#003B30"/>
<path d="M491.425 350.434L489.577 348.586L487.73 350.434L489.577 352.283L491.425 350.434Z" fill="#003B30"/>
<path d="M514.65 350.434L512.802 348.586L510.955 350.434L512.802 352.283L514.65 350.434Z" fill="#003B30"/>
<path d="M537.875 350.434L536.027 348.586L534.18 350.434L536.027 352.283L537.875 350.434Z" fill="#003B30"/>
<path d="M561.1 350.434L559.252 348.586L557.405 350.434L559.252 352.283L561.1 350.434Z" fill="#003B30"/>
<path d="M584.325 350.434L582.477 348.586L580.63 350.434L582.477 352.283L584.325 350.434Z" fill="#003B30"/>
<path d="M607.55 350.434L605.702 348.586L603.855 350.434L605.702 352.283L607.55 350.434Z" fill="#003B30"/>
<path d="M630.775 350.434L628.927 348.586L627.08 350.434L628.927 352.283L630.775 350.434Z" fill="#003B30"/>
<path d="M654 350.434L652.152 348.586L650.305 350.434L652.152 352.283L654 350.434Z" fill="#003B30"/>
<path d="M235.949 373.673L234.101 371.824L232.254 373.673L234.101 375.522L235.949 373.673Z" fill="#003B30"/>
<path d="M259.174 373.673L257.326 371.824L255.479 373.673L257.326 375.522L259.174 373.673Z" fill="#003B30"/>
<path d="M282.399 373.673L280.551 371.824L278.704 373.673L280.551 375.522L282.399 373.673Z" fill="#003B30"/>
<path d="M305.624 373.673L303.777 371.824L301.929 373.673L303.777 375.522L305.624 373.673Z" fill="#003B30"/>
<path d="M328.849 373.673L327.002 371.824L325.154 373.673L327.002 375.522L328.849 373.673Z" fill="#003B30"/>
<path d="M352.074 373.673L350.227 371.824L348.379 373.673L350.227 375.522L352.074 373.673Z" fill="#003B30"/>
<path d="M375.299 373.673L373.452 371.824L371.604 373.673L373.452 375.522L375.299 373.673Z" fill="#003B30"/>
<path d="M398.524 373.673L396.677 371.824L394.829 373.673L396.677 375.522L398.524 373.673Z" fill="#003B30"/>
<path d="M421.749 373.673L419.902 371.824L418.054 373.673L419.902 375.522L421.749 373.673Z" fill="#003B30"/>
<path d="M444.975 373.673L443.127 371.824L441.28 373.673L443.127 375.522L444.975 373.673Z" fill="#003B30"/>
<path d="M468.199 373.673L466.352 371.824L464.504 373.673L466.352 375.522L468.199 373.673Z" fill="#003B30"/>
<path d="M491.425 373.673L489.577 371.824L487.73 373.673L489.577 375.522L491.425 373.673Z" fill="#003B30"/>
<path d="M514.65 373.673L512.802 371.824L510.955 373.673L512.802 375.522L514.65 373.673Z" fill="#003B30"/>
<path d="M537.875 373.673L536.027 371.824L534.18 373.673L536.027 375.522L537.875 373.673Z" fill="#003B30"/>
<path d="M561.1 373.673L559.252 371.824L557.405 373.673L559.252 375.522L561.1 373.673Z" fill="#003B30"/>
<path d="M584.325 373.673L582.477 371.824L580.63 373.673L582.477 375.522L584.325 373.673Z" fill="#003B30"/>
<path d="M607.55 373.673L605.702 371.824L603.855 373.673L605.702 375.522L607.55 373.673Z" fill="#003B30"/>
<path d="M630.775 373.673L628.927 371.824L627.08 373.673L628.927 375.522L630.775 373.673Z" fill="#003B30"/>
<path d="M654 373.673L652.152 371.824L650.305 373.673L652.152 375.522L654 373.673Z" fill="#003B30"/>
<path d="M235.949 396.912L234.101 395.063L232.254 396.912L234.101 398.761L235.949 396.912Z" fill="#003B30"/>
<path d="M259.174 396.912L257.326 395.063L255.479 396.912L257.326 398.761L259.174 396.912Z" fill="#003B30"/>
<path d="M282.399 396.912L280.551 395.063L278.704 396.912L280.551 398.761L282.399 396.912Z" fill="#003B30"/>
<path d="M305.624 396.912L303.777 395.063L301.929 396.912L303.777 398.761L305.624 396.912Z" fill="#003B30"/>
<path d="M328.849 396.912L327.002 395.063L325.154 396.912L327.002 398.761L328.849 396.912Z" fill="#003B30"/>
<path d="M352.074 396.912L350.227 395.063L348.379 396.912L350.227 398.761L352.074 396.912Z" fill="#003B30"/>
<path d="M375.299 396.912L373.452 395.063L371.604 396.912L373.452 398.761L375.299 396.912Z" fill="#003B30"/>
<path d="M398.524 396.912L396.677 395.063L394.829 396.912L396.677 398.761L398.524 396.912Z" fill="#003B30"/>
<path d="M421.749 396.912L419.902 395.063L418.054 396.912L419.902 398.761L421.749 396.912Z" fill="#003B30"/>
<path d="M444.975 396.912L443.127 395.063L441.28 396.912L443.127 398.761L444.975 396.912Z" fill="#003B30"/>
<path d="M468.199 396.912L466.352 395.063L464.504 396.912L466.352 398.761L468.199 396.912Z" fill="#003B30"/>
<path d="M491.425 396.912L489.577 395.063L487.73 396.912L489.577 398.761L491.425 396.912Z" fill="#003B30"/>
<path d="M514.65 396.912L512.802 395.063L510.955 396.912L512.802 398.761L514.65 396.912Z" fill="#003B30"/>
<path d="M537.875 396.912L536.027 395.063L534.18 396.912L536.027 398.761L537.875 396.912Z" fill="#003B30"/>
<path d="M561.1 396.912L559.252 395.063L557.405 396.912L559.252 398.761L561.1 396.912Z" fill="#003B30"/>
<path d="M584.325 396.912L582.477 395.063L580.63 396.912L582.477 398.761L584.325 396.912Z" fill="#003B30"/>
<path d="M607.55 396.912L605.702 395.063L603.855 396.912L605.702 398.761L607.55 396.912Z" fill="#003B30"/>
<path d="M630.775 396.912L628.927 395.063L627.08 396.912L628.927 398.761L630.775 396.912Z" fill="#003B30"/>
<path d="M654 396.912L652.152 395.063L650.305 396.912L652.152 398.761L654 396.912Z" fill="#003B30"/>
<path d="M235.949 420.151L234.101 418.303L232.254 420.151L234.101 422L235.949 420.151Z" fill="#003B30"/>
<path d="M259.174 420.151L257.326 418.303L255.479 420.151L257.326 422L259.174 420.151Z" fill="#003B30"/>
<path d="M282.399 420.151L280.551 418.303L278.704 420.151L280.551 422L282.399 420.151Z" fill="#003B30"/>
<path d="M305.624 420.151L303.777 418.303L301.929 420.151L303.777 422L305.624 420.151Z" fill="#003B30"/>
<path d="M328.849 420.151L327.002 418.303L325.154 420.151L327.002 422L328.849 420.151Z" fill="#003B30"/>
<path d="M352.074 420.151L350.227 418.303L348.379 420.151L350.227 422L352.074 420.151Z" fill="#003B30"/>
<path d="M375.299 420.151L373.452 418.303L371.604 420.151L373.452 422L375.299 420.151Z" fill="#003B30"/>
<path d="M398.524 420.151L396.677 418.303L394.829 420.151L396.677 422L398.524 420.151Z" fill="#003B30"/>
<path d="M421.749 420.151L419.902 418.303L418.054 420.151L419.902 422L421.749 420.151Z" fill="#003B30"/>
<path d="M444.975 420.151L443.127 418.303L441.28 420.151L443.127 422L444.975 420.151Z" fill="#003B30"/>
<path d="M468.199 420.151L466.352 418.303L464.504 420.151L466.352 422L468.199 420.151Z" fill="#003B30"/>
<path d="M491.425 420.151L489.577 418.303L487.73 420.151L489.577 422L491.425 420.151Z" fill="#003B30"/>
<path d="M514.65 420.151L512.802 418.303L510.955 420.151L512.802 422L514.65 420.151Z" fill="#003B30"/>
<path d="M537.875 420.151L536.027 418.303L534.18 420.151L536.027 422L537.875 420.151Z" fill="#003B30"/>
<path d="M561.1 420.151L559.252 418.303L557.405 420.151L559.252 422L561.1 420.151Z" fill="#003B30"/>
<path d="M584.325 420.151L582.477 418.303L580.63 420.151L582.477 422L584.325 420.151Z" fill="#003B30"/>
<path d="M607.55 420.151L605.702 418.303L603.855 420.151L605.702 422L607.55 420.151Z" fill="#003B30"/>
<path d="M630.775 420.151L628.927 418.303L627.08 420.151L628.927 422L630.775 420.151Z" fill="#003B30"/>
<path d="M654 420.151L652.152 418.303L650.305 420.151L652.152 422L654 420.151Z" fill="#003B30"/>
</svg>
